<svg xmlns="http://www.w3.org/2000/svg" xmlns:xlink="http://www.w3.org/1999/xlink" width="500" zoomAndPan="magnify" viewBox="0 0 375 374.999991" height="500" preserveAspectRatio="xMidYMid meet" version="1.2"><defs><clipPath id="8a91cfc5c5"><path d="M 185 233 L 238 233 L 238 236.8125 L 185 236.8125 Z M 185 233 "/></clipPath><clipPath id="f2cb12453f"><path d="M 185 235 L 238 235 L 238 236.8125 L 185 236.8125 Z M 185 235 "/></clipPath><clipPath id="cc8e8c488d"><path d="M 120 233 L 154 233 L 154 236.8125 L 120 236.8125 Z M 120 233 "/></clipPath><clipPath id="84307c6651"><path d="M 120 235 L 154 235 L 154 236.8125 L 120 236.8125 Z M 120 235 "/></clipPath><clipPath id="1601d16048"><path d="M 257 157 L 262.5 157 L 262.5 207 L 257 207 Z M 257 157 "/></clipPath><clipPath id="0ca3667aa0"><path d="M 257 189 L 262.5 189 L 262.5 207 L 257 207 Z M 257 189 "/></clipPath><clipPath id="edf33a7e31"><path d="M 112.5 167 L 115 167 L 115 197 L 112.5 197 Z M 112.5 167 "/></clipPath><clipPath id="37f4bf3abd"><path d="M 123 138.5625 L 150 138.5625 L 150 141 L 123 141 Z M 123 138.5625 "/></clipPath><clipPath id="e215f8750f"><path d="M 187.5 225.308594 L 193.5 225.308594 L 193.5 231.308594 L 187.5 231.308594 Z M 187.5 225.308594 "/></clipPath></defs><g id="c700b056b2"><rect x="0" width="375" y="0" height="374.999991" style="fill:#ffffff;fill-opacity:1;stroke:none;"/><rect x="0" width="375" y="0" height="374.999991" style="fill:#ffffff;fill-opacity:1;stroke:none;"/><path style=" stroke:none;fill-rule:nonzero;fill:#407ace;fill-opacity:1;" d="M 196.269531 150.632812 L 225.542969 150.632812 L 225.542969 157.09375 L 196.269531 157.09375 Z M 196.269531 150.632812 "/><path style=" stroke:none;fill-rule:nonzero;fill:#1854aa;fill-opacity:1;" d="M 225.542969 150.632812 L 225.542969 157.09375 L 216.355469 157.09375 L 216.355469 154.984375 C 214.605469 155.085938 212.777344 155.140625 210.90625 155.140625 C 208.121094 155.140625 205.445312 155.019531 202.945312 154.804688 C 201.398438 154.671875 199.917969 154.496094 198.527344 154.289062 C 197.746094 154.171875 196.992188 154.046875 196.269531 153.910156 L 196.269531 150.632812 Z M 225.542969 150.632812 "/><path style=" stroke:none;fill-rule:nonzero;fill:#344859;fill-opacity:1;" d="M 227.101562 147.0625 L 227.101562 147.109375 C 227.101562 147.605469 227.097656 148.09375 227.089844 148.582031 C 227.078125 149.300781 227.058594 150.023438 227.03125 150.730469 C 227 151.4375 226.542969 152.027344 225.933594 152.144531 C 221.761719 152.964844 216.554688 153.449219 210.90625 153.449219 C 208.121094 153.449219 205.445312 153.328125 202.945312 153.113281 C 201.398438 152.980469 199.917969 152.804688 198.527344 152.597656 C 197.605469 152.460938 196.722656 152.308594 195.878906 152.144531 C 195.269531 152.027344 194.8125 151.4375 194.785156 150.730469 C 194.757812 150.023438 194.738281 149.300781 194.726562 148.582031 C 194.714844 148.09375 194.710938 147.605469 194.710938 147.109375 L 194.710938 147.0625 C 194.710938 145.828125 194.738281 144.605469 194.785156 143.398438 C 194.8125 142.691406 195.269531 142.101562 195.878906 141.984375 C 196.722656 141.816406 197.605469 141.667969 198.527344 141.53125 C 199.917969 141.324219 201.398438 141.148438 202.945312 141.015625 C 205.445312 140.800781 208.121094 140.679688 210.90625 140.679688 C 216.554688 140.679688 221.761719 141.164062 225.933594 141.984375 C 226.542969 142.101562 227 142.691406 227.03125 143.398438 C 227.078125 144.605469 227.101562 145.828125 227.101562 147.0625 Z M 227.101562 147.0625 "/><path style=" stroke:none;fill-rule:nonzero;fill:#51697e;fill-opacity:1;" d="M 202.726562 152.078125 C 202.738281 152.457031 202.8125 152.8125 202.945312 153.113281 C 201.398438 152.980469 199.917969 152.804688 198.527344 152.597656 C 198.492188 152.433594 198.472656 152.257812 198.46875 152.078125 C 198.441406 151.105469 198.421875 150.121094 198.410156 149.136719 C 198.398438 148.472656 198.398438 147.800781 198.398438 147.125 L 198.398438 147.0625 C 198.398438 145.371094 198.421875 143.699219 198.46875 142.050781 C 198.472656 141.871094 198.492188 141.695312 198.527344 141.53125 C 199.917969 141.324219 201.398438 141.148438 202.945312 141.015625 C 202.8125 141.316406 202.738281 141.671875 202.726562 142.050781 C 202.679688 143.699219 202.652344 145.371094 202.652344 147.0625 L 202.652344 147.125 C 202.652344 147.800781 202.65625 148.472656 202.667969 149.136719 C 202.679688 150.121094 202.699219 151.105469 202.726562 152.078125 Z M 202.726562 152.078125 "/><path style=" stroke:none;fill-rule:nonzero;fill:#1f2b36;fill-opacity:1;" d="M 227.101562 147.0625 L 227.101562 147.109375 C 227.101562 147.605469 227.097656 148.09375 227.089844 148.582031 C 227.078125 149.300781 227.058594 150.023438 227.03125 150.730469 C 227 151.4375 226.542969 152.027344 225.933594 152.144531 C 224.019531 152.519531 221.886719 152.824219 219.589844 153.046875 C 219.78125 152.722656 219.902344 152.296875 219.917969 151.839844 C 219.949219 150.914062 219.964844 149.976562 219.980469 149.035156 C 219.988281 148.402344 219.992188 147.769531 219.992188 147.125 L 219.992188 147.0625 C 219.992188 145.449219 219.964844 143.859375 219.917969 142.289062 C 219.90625 141.828125 219.78125 141.40625 219.589844 141.082031 C 221.886719 141.300781 224.019531 141.609375 225.933594 141.984375 C 226.542969 142.101562 227 142.691406 227.03125 143.398438 C 227.078125 144.605469 227.101562 145.828125 227.101562 147.0625 Z M 227.101562 147.0625 "/><path style=" stroke:none;fill-rule:nonzero;fill:#1f2b36;fill-opacity:1;" d="M 227.101562 147.109375 C 227.101562 147.605469 227.097656 148.09375 227.089844 148.582031 C 222.554688 148.6875 216.964844 148.753906 210.90625 148.753906 C 204.851562 148.753906 199.257812 148.6875 194.726562 148.582031 C 194.714844 148.09375 194.710938 147.605469 194.710938 147.109375 C 199.25 147.003906 204.847656 146.9375 210.90625 146.9375 C 216.96875 146.9375 222.5625 147.003906 227.101562 147.109375 Z M 227.101562 147.109375 "/><path style=" stroke:none;fill-rule:nonzero;fill:#51697e;fill-opacity:1;" d="M 227.605469 146.726562 C 227.605469 146.511719 227.441406 146.339844 227.234375 146.332031 C 222.671875 146.222656 217.027344 146.15625 210.90625 146.15625 C 204.789062 146.15625 199.140625 146.222656 194.582031 146.332031 C 194.371094 146.339844 194.207031 146.511719 194.207031 146.726562 C 194.207031 146.835938 194.207031 146.949219 194.207031 147.0625 C 194.207031 147.175781 194.207031 147.289062 194.207031 147.402344 C 194.207031 147.617188 194.371094 147.789062 194.582031 147.796875 C 199.140625 147.90625 204.789062 147.972656 210.90625 147.972656 C 217.027344 147.972656 222.671875 147.90625 227.234375 147.796875 C 227.441406 147.789062 227.605469 147.617188 227.605469 147.402344 C 227.609375 147.289062 227.609375 147.175781 227.609375 147.0625 C 227.609375 146.949219 227.609375 146.835938 227.605469 146.726562 Z M 227.605469 146.726562 "/><path style=" stroke:none;fill-rule:nonzero;fill:#728a9f;fill-opacity:1;" d="M 210.007812 146.386719 C 205.40625 146.390625 200.777344 146.4375 196.574219 146.515625 C 196.402344 146.519531 196.265625 146.664062 196.269531 146.835938 C 196.273438 147.007812 196.414062 147.144531 196.585938 147.140625 C 200.785156 147.0625 205.414062 147.015625 210.011719 147.011719 C 210.183594 147.011719 210.320312 146.871094 210.320312 146.699219 C 210.320312 146.527344 210.183594 146.386719 210.007812 146.386719 Z M 210.007812 146.386719 "/><path style=" stroke:none;fill-rule:nonzero;fill:#474c6f;fill-opacity:1;" d="M 156.875 161.785156 L 168.707031 161.785156 L 168.707031 202.34375 L 156.875 202.34375 Z M 156.875 161.785156 "/><path style=" stroke:none;fill-rule:nonzero;fill:#373b57;fill-opacity:1;" d="M 156.875 191.273438 L 168.707031 191.273438 L 168.707031 202.34375 L 156.875 202.34375 Z M 156.875 191.273438 "/><path style=" stroke:none;fill-rule:nonzero;fill:#474c6f;fill-opacity:1;" d="M 156.953125 182.066406 L 155.179688 204.433594 C 154.339844 203.09375 153.722656 204.378906 153.722656 204.378906 L 152.203125 182.066406 L 154.074219 159.796875 C 154.074219 159.796875 154.6875 161.136719 155.527344 159.796875 Z M 156.953125 182.066406 "/><path style=" stroke:none;fill-rule:nonzero;fill:#afb4d0;fill-opacity:1;" d="M 154.074219 159.796875 L 154.074219 190.152344 C 154.074219 195.050781 153.953125 199.808594 153.726562 204.378906 C 153.703125 204.808594 153.347656 205.144531 152.917969 205.144531 L 146.816406 205.144531 L 146.816406 158.992188 L 153.269531 158.992188 C 153.710938 158.992188 154.074219 159.351562 154.074219 159.796875 Z M 154.074219 159.796875 "/><path style=" stroke:none;fill-rule:nonzero;fill:#afb4d0;fill-opacity:1;" d="M 159.992188 159.796875 L 159.992188 190.152344 C 159.992188 195.050781 159.871094 199.808594 159.640625 204.378906 C 159.621094 204.808594 159.265625 205.144531 158.835938 205.144531 L 155.984375 205.144531 C 155.523438 205.144531 155.160156 204.757812 155.183594 204.296875 C 155.410156 199.753906 155.527344 195.019531 155.527344 190.152344 L 155.527344 159.796875 C 155.527344 159.351562 155.890625 158.992188 156.332031 158.992188 L 159.1875 158.992188 C 159.628906 158.992188 159.992188 159.351562 159.992188 159.796875 Z M 159.992188 159.796875 "/><path style=" stroke:none;fill-rule:nonzero;fill:#666d97;fill-opacity:1;" d="M 159.992188 188.980469 L 159.992188 190.152344 C 159.992188 195.050781 159.871094 199.808594 159.640625 204.378906 C 159.621094 204.808594 159.265625 205.144531 158.835938 205.144531 L 155.984375 205.144531 C 155.523438 205.144531 155.160156 204.757812 155.183594 204.296875 C 155.410156 199.753906 155.527344 195.019531 155.527344 190.152344 L 155.527344 188.980469 Z M 159.992188 188.980469 "/><path style=" stroke:none;fill-rule:nonzero;fill:#666d97;fill-opacity:1;" d="M 154.074219 188.980469 L 154.074219 190.152344 C 154.074219 195.050781 153.953125 199.808594 153.726562 204.378906 C 153.703125 204.808594 153.347656 205.144531 152.917969 205.144531 L 146.816406 205.144531 L 146.816406 158.992188 L 151.792969 158.992188 L 151.792969 186.691406 C 151.792969 187.957031 152.816406 188.980469 154.074219 188.980469 Z M 154.074219 188.980469 "/><path style=" stroke:none;fill-rule:nonzero;fill:#dbddf4;fill-opacity:1;" d="M 152.808594 163.894531 L 154.074219 163.894531 L 154.074219 176.488281 L 152.808594 176.488281 Z M 152.808594 163.894531 "/><path style=" stroke:none;fill-rule:nonzero;fill:#dbddf4;fill-opacity:1;" d="M 155.527344 163.894531 L 159.992188 163.894531 L 159.992188 176.488281 L 155.527344 176.488281 Z M 155.527344 163.894531 "/><path style=" stroke:none;fill-rule:nonzero;fill:#2658b8;fill-opacity:1;" d="M 194.488281 206.070312 L 228.671875 206.070312 L 228.671875 234.414062 L 194.488281 234.414062 Z M 194.488281 206.070312 "/><path style=" stroke:none;fill-rule:nonzero;fill:#093f8b;fill-opacity:1;" d="M 228.671875 206.070312 L 228.671875 234.414062 L 222.859375 234.414062 L 222.859375 211.332031 L 194.488281 211.332031 L 194.488281 206.070312 Z M 228.671875 206.070312 "/><g clip-rule="nonzero" clip-path="url(#8a91cfc5c5)"><path style=" stroke:none;fill-rule:nonzero;fill:#407ace;fill-opacity:1;" d="M 237.421875 236.019531 L 236.644531 234.296875 C 236.386719 233.734375 235.828125 233.375 235.214844 233.375 L 187.949219 233.375 C 187.332031 233.375 186.773438 233.734375 186.519531 234.296875 L 185.738281 236.019531 C 185.570312 236.390625 185.839844 236.8125 186.246094 236.8125 L 236.914062 236.8125 C 237.320312 236.8125 237.589844 236.390625 237.421875 236.019531 Z M 237.421875 236.019531 "/></g><g clip-rule="nonzero" clip-path="url(#f2cb12453f)"><path style=" stroke:none;fill-rule:nonzero;fill:#2658b8;fill-opacity:1;" d="M 236.914062 236.8125 L 186.25 236.8125 C 185.839844 236.8125 185.570312 236.390625 185.738281 236.019531 L 185.949219 235.550781 C 186.035156 235.609375 186.136719 235.640625 186.25 235.640625 L 236.914062 235.640625 C 237.027344 235.640625 237.128906 235.609375 237.210938 235.550781 L 237.421875 236.019531 C 237.589844 236.390625 237.320312 236.8125 236.914062 236.8125 Z M 236.914062 236.8125 "/></g><path style=" stroke:none;fill-rule:nonzero;fill:#2658b8;fill-opacity:1;" d="M 148.933594 234.078125 L 124.492188 234.078125 L 126.152344 225.648438 L 126.984375 221.414062 L 146.441406 221.414062 L 147.273438 225.648438 Z M 148.933594 234.078125 "/><path style=" stroke:none;fill-rule:nonzero;fill:#093f8b;fill-opacity:1;" d="M 147.273438 225.648438 C 146.765625 226.757812 146.085938 227.769531 145.269531 228.65625 C 143.15625 230.957031 140.136719 232.386719 136.816406 232.390625 L 136.609375 232.390625 C 132.015625 232.382812 127.996094 229.648438 126.152344 225.648438 L 126.984375 221.414062 L 146.441406 221.414062 Z M 147.273438 225.648438 "/><g clip-rule="nonzero" clip-path="url(#cc8e8c488d)"><path style=" stroke:none;fill-rule:nonzero;fill:#407ace;fill-opacity:1;" d="M 153.015625 236.019531 L 152.238281 234.296875 C 151.980469 233.734375 151.421875 233.375 150.808594 233.375 L 122.617188 233.375 C 122.003906 233.375 121.445312 233.734375 121.1875 234.296875 L 120.410156 236.019531 C 120.242188 236.390625 120.511719 236.8125 120.917969 236.8125 L 152.507812 236.8125 C 152.914062 236.8125 153.183594 236.390625 153.015625 236.019531 Z M 153.015625 236.019531 "/></g><g clip-rule="nonzero" clip-path="url(#84307c6651)"><path style=" stroke:none;fill-rule:nonzero;fill:#2658b8;fill-opacity:1;" d="M 152.511719 236.8125 L 120.917969 236.8125 C 120.511719 236.8125 120.242188 236.390625 120.410156 236.019531 L 120.621094 235.550781 C 120.703125 235.609375 120.808594 235.640625 120.917969 235.640625 L 152.511719 235.640625 C 152.621094 235.640625 152.722656 235.609375 152.804688 235.550781 L 153.015625 236.019531 C 153.1875 236.390625 152.914062 236.8125 152.511719 236.8125 Z M 152.511719 236.8125 "/></g><path style=" stroke:none;fill-rule:nonzero;fill:#093f8b;fill-opacity:1;" d="M 179.183594 159.054688 L 187.230469 159.054688 L 187.230469 205.082031 L 179.183594 205.082031 Z M 179.183594 159.054688 "/><path style=" stroke:none;fill-rule:nonzero;fill:#1854aa;fill-opacity:1;" d="M 185.125 158.546875 L 238.164062 158.546875 L 238.164062 206.558594 L 185.125 206.558594 Z M 185.125 158.546875 "/><path style=" stroke:none;fill-rule:nonzero;fill:#093f8b;fill-opacity:1;" d="M 185.125 159.140625 L 238.164062 159.140625 L 238.164062 162.300781 L 185.125 162.300781 Z M 185.125 159.140625 "/><path style=" stroke:none;fill-rule:nonzero;fill:#093f8b;fill-opacity:1;" d="M 185.125 166.214844 L 238.164062 166.214844 L 238.164062 170.136719 L 185.125 170.136719 Z M 185.125 166.214844 "/><path style=" stroke:none;fill-rule:nonzero;fill:#093f8b;fill-opacity:1;" d="M 185.125 174.054688 L 238.164062 174.054688 L 238.164062 177.976562 L 185.125 177.976562 Z M 185.125 174.054688 "/><path style=" stroke:none;fill-rule:nonzero;fill:#093f8b;fill-opacity:1;" d="M 238.207031 185.816406 L 185.125 185.816406 L 185.125 181.894531 L 238.164062 181.894531 L 238.164062 185.316406 Z M 238.207031 185.816406 "/><path style=" stroke:none;fill-rule:nonzero;fill:#093f8b;fill-opacity:1;" d="M 185.125 189.730469 L 238.164062 189.730469 L 238.164062 193.652344 L 185.125 193.652344 Z M 185.125 189.730469 "/><path style=" stroke:none;fill-rule:nonzero;fill:#093f8b;fill-opacity:1;" d="M 185.125 197.570312 L 238.164062 197.570312 L 238.164062 201.492188 L 185.125 201.492188 Z M 185.125 197.570312 "/><path style=" stroke:none;fill-rule:nonzero;fill:#093f8b;fill-opacity:1;" d="M 236.847656 169.542969 L 235.726562 169.542969 L 235.949219 165.621094 L 236.503906 165.621094 Z M 236.847656 169.542969 "/><path style=" stroke:none;fill-rule:nonzero;fill:#093f8b;fill-opacity:1;" d="M 237.527344 177.382812 L 235.289062 177.382812 L 235.507812 173.460938 L 237.1875 173.460938 Z M 237.527344 177.382812 "/><path style=" stroke:none;fill-rule:nonzero;fill:#093f8b;fill-opacity:1;" d="M 238.207031 185.222656 L 234.847656 185.222656 L 235.066406 181.300781 L 237.867188 181.300781 L 238.164062 184.726562 Z M 238.207031 185.222656 "/><path style=" stroke:none;fill-rule:nonzero;fill:#093f8b;fill-opacity:1;" d="M 238.164062 189.140625 L 238.164062 193.0625 L 234.402344 193.0625 L 234.625 189.140625 Z M 238.164062 189.140625 "/><path style=" stroke:none;fill-rule:nonzero;fill:#093f8b;fill-opacity:1;" d="M 238.164062 196.980469 L 238.164062 200.902344 L 233.960938 200.902344 L 234.179688 196.980469 Z M 238.164062 196.980469 "/><path style=" stroke:none;fill-rule:nonzero;fill:#093f8b;fill-opacity:1;" d="M 238.164062 204.816406 L 238.164062 206.558594 L 233.644531 206.558594 L 233.742188 204.816406 Z M 238.164062 204.816406 "/><path style=" stroke:none;fill-rule:nonzero;fill:#579adf;fill-opacity:1;" d="M 239.8125 157.421875 C 239.789062 156.953125 239.476562 156.589844 239.097656 156.589844 L 185.074219 156.589844 C 184.699219 156.589844 184.386719 156.953125 184.359375 157.421875 C 184.339844 157.792969 184.328125 158.171875 184.328125 158.546875 C 184.328125 158.929688 184.339844 159.304688 184.359375 159.679688 C 184.386719 160.148438 184.699219 160.511719 185.078125 160.511719 L 239.097656 160.511719 C 239.476562 160.511719 239.789062 160.148438 239.816406 159.679688 C 239.835938 159.304688 239.847656 158.929688 239.847656 158.546875 C 239.847656 158.171875 239.835938 157.792969 239.8125 157.421875 Z M 239.8125 157.421875 "/><path style=" stroke:none;fill-rule:nonzero;fill:#579adf;fill-opacity:1;" d="M 239.847656 166.386719 C 239.847656 166.765625 239.835938 167.144531 239.8125 167.523438 C 239.789062 167.984375 239.476562 168.351562 239.097656 168.351562 L 185.074219 168.351562 C 184.695312 168.351562 184.382812 167.984375 184.359375 167.523438 C 184.335938 167.144531 184.328125 166.765625 184.328125 166.386719 C 184.328125 166.007812 184.335938 165.636719 184.359375 165.257812 C 184.382812 164.789062 184.695312 164.429688 185.074219 164.429688 L 239.097656 164.429688 C 239.476562 164.429688 239.789062 164.789062 239.8125 165.257812 C 239.835938 165.636719 239.847656 166.007812 239.847656 166.386719 Z M 239.847656 166.386719 "/><path style=" stroke:none;fill-rule:nonzero;fill:#579adf;fill-opacity:1;" d="M 239.847656 174.226562 C 239.847656 174.605469 239.835938 174.984375 239.8125 175.363281 C 239.789062 175.824219 239.476562 176.191406 239.097656 176.191406 L 185.074219 176.191406 C 184.695312 176.191406 184.382812 175.824219 184.359375 175.363281 C 184.335938 174.984375 184.328125 174.605469 184.328125 174.226562 C 184.328125 173.847656 184.335938 173.472656 184.359375 173.09375 C 184.382812 172.628906 184.695312 172.265625 185.074219 172.265625 L 239.097656 172.265625 C 239.476562 172.265625 239.789062 172.628906 239.8125 173.09375 C 239.835938 173.472656 239.847656 173.847656 239.847656 174.226562 Z M 239.847656 174.226562 "/><path style=" stroke:none;fill-rule:nonzero;fill:#579adf;fill-opacity:1;" d="M 239.847656 182.0625 C 239.847656 182.441406 239.835938 182.820312 239.8125 183.195312 C 239.789062 183.660156 239.476562 184.027344 239.097656 184.027344 L 185.074219 184.027344 C 184.695312 184.027344 184.382812 183.660156 184.359375 183.195312 C 184.335938 182.820312 184.328125 182.441406 184.328125 182.0625 C 184.328125 181.6875 184.335938 181.3125 184.359375 180.933594 C 184.382812 180.46875 184.695312 180.105469 185.074219 180.105469 L 239.097656 180.105469 C 239.476562 180.105469 239.789062 180.46875 239.8125 180.933594 C 239.835938 181.3125 239.847656 181.6875 239.847656 182.0625 Z M 239.847656 182.0625 "/><path style=" stroke:none;fill-rule:nonzero;fill:#579adf;fill-opacity:1;" d="M 239.847656 189.902344 C 239.847656 190.28125 239.835938 190.660156 239.8125 191.03125 C 239.789062 191.5 239.476562 191.867188 239.097656 191.867188 L 185.074219 191.867188 C 184.695312 191.867188 184.382812 191.5 184.359375 191.03125 C 184.335938 190.660156 184.328125 190.28125 184.328125 189.902344 C 184.328125 189.523438 184.335938 189.152344 184.359375 188.773438 C 184.382812 188.304688 184.695312 187.945312 185.074219 187.945312 L 239.097656 187.945312 C 239.476562 187.945312 239.789062 188.304688 239.8125 188.773438 C 239.835938 189.152344 239.847656 189.523438 239.847656 189.902344 Z M 239.847656 189.902344 "/><path style=" stroke:none;fill-rule:nonzero;fill:#579adf;fill-opacity:1;" d="M 239.847656 197.742188 C 239.847656 198.121094 239.835938 198.5 239.8125 198.871094 C 239.796875 199.125 239.703125 199.351562 239.554688 199.5 C 239.429688 199.628906 239.273438 199.707031 239.097656 199.707031 L 185.074219 199.707031 C 184.695312 199.707031 184.382812 199.339844 184.359375 198.871094 C 184.335938 198.5 184.328125 198.121094 184.328125 197.742188 C 184.328125 197.363281 184.335938 196.984375 184.359375 196.613281 C 184.382812 196.144531 184.695312 195.785156 185.074219 195.785156 L 239.097656 195.785156 C 239.148438 195.785156 239.191406 195.789062 239.234375 195.800781 C 239.550781 195.871094 239.792969 196.203125 239.8125 196.613281 C 239.835938 196.984375 239.847656 197.363281 239.847656 197.742188 Z M 239.847656 197.742188 "/><path style=" stroke:none;fill-rule:nonzero;fill:#579adf;fill-opacity:1;" d="M 239.847656 205.582031 C 239.847656 205.960938 239.835938 206.339844 239.8125 206.710938 C 239.789062 207.179688 239.476562 207.542969 239.097656 207.542969 L 185.074219 207.542969 C 184.695312 207.542969 184.382812 207.179688 184.359375 206.710938 C 184.335938 206.339844 184.328125 205.960938 184.328125 205.582031 C 184.328125 205.203125 184.335938 204.824219 184.359375 204.449219 C 184.382812 203.984375 184.695312 203.621094 185.074219 203.621094 L 239.097656 203.621094 C 239.476562 203.621094 239.789062 203.984375 239.8125 204.449219 C 239.835938 204.824219 239.847656 205.203125 239.847656 205.582031 Z M 239.847656 205.582031 "/><path style=" stroke:none;fill-rule:nonzero;fill:#2f6bca;fill-opacity:1;" d="M 185.074219 160.511719 L 239.097656 160.511719 C 239.476562 160.511719 239.789062 160.148438 239.8125 159.683594 C 239.835938 159.304688 239.847656 158.925781 239.847656 158.546875 C 239.847656 158.292969 239.84375 158.039062 239.828125 157.785156 C 239.828125 157.902344 239.824219 158.019531 239.8125 158.136719 C 239.789062 158.605469 239.476562 158.972656 239.097656 158.972656 L 185.074219 158.972656 C 184.695312 158.972656 184.382812 158.605469 184.359375 158.136719 C 184.351562 158.019531 184.347656 157.902344 184.347656 157.785156 C 184.332031 158.039062 184.328125 158.292969 184.328125 158.546875 C 184.328125 158.925781 184.335938 159.304688 184.359375 159.683594 C 184.382812 160.148438 184.695312 160.511719 185.074219 160.511719 Z M 185.074219 160.511719 "/><path style=" stroke:none;fill-rule:nonzero;fill:#2f6bca;fill-opacity:1;" d="M 239.8125 165.976562 C 239.789062 166.445312 239.476562 166.8125 239.097656 166.8125 L 236.714844 166.8125 L 236.503906 164.429688 L 235.949219 164.429688 L 235.816406 166.8125 L 185.074219 166.8125 C 184.695312 166.8125 184.382812 166.445312 184.359375 165.976562 C 184.351562 165.859375 184.347656 165.742188 184.347656 165.621094 C 184.332031 165.875 184.328125 166.128906 184.328125 166.386719 C 184.328125 166.765625 184.335938 167.140625 184.359375 167.519531 C 184.382812 167.988281 184.695312 168.347656 185.074219 168.347656 L 235.726562 168.347656 L 235.726562 168.351562 L 236.847656 168.351562 L 236.847656 168.347656 L 239.097656 168.347656 C 239.476562 168.347656 239.789062 167.988281 239.8125 167.519531 C 239.835938 167.140625 239.847656 166.765625 239.847656 166.386719 C 239.847656 166.128906 239.84375 165.875 239.828125 165.621094 C 239.828125 165.742188 239.824219 165.859375 239.8125 165.976562 Z M 239.8125 165.976562 "/><path style=" stroke:none;fill-rule:nonzero;fill:#2f6bca;fill-opacity:1;" d="M 239.8125 173.816406 C 239.789062 174.28125 239.476562 174.648438 239.097656 174.648438 L 237.394531 174.648438 L 237.1875 172.265625 L 235.507812 172.265625 L 235.375 174.648438 L 185.074219 174.648438 C 184.695312 174.648438 184.382812 174.28125 184.359375 173.816406 C 184.351562 173.699219 184.347656 173.574219 184.347656 173.453125 C 184.332031 173.714844 184.328125 173.96875 184.328125 174.222656 C 184.328125 174.601562 184.335938 174.980469 184.359375 175.359375 C 184.382812 175.828125 184.695312 176.1875 185.074219 176.1875 L 235.289062 176.1875 L 235.289062 176.191406 L 237.527344 176.191406 L 237.527344 176.1875 L 239.097656 176.1875 C 239.476562 176.1875 239.789062 175.828125 239.8125 175.359375 C 239.835938 174.980469 239.847656 174.601562 239.847656 174.222656 C 239.847656 173.96875 239.84375 173.714844 239.828125 173.453125 C 239.828125 173.574219 239.824219 173.699219 239.8125 173.816406 Z M 239.8125 173.816406 "/><path style=" stroke:none;fill-rule:nonzero;fill:#2f6bca;fill-opacity:1;" d="M 239.8125 181.65625 C 239.789062 182.121094 239.476562 182.488281 239.097656 182.488281 L 238.074219 182.488281 L 237.867188 180.105469 L 235.066406 180.105469 L 234.933594 182.488281 L 185.074219 182.488281 C 184.695312 182.488281 184.382812 182.121094 184.359375 181.65625 C 184.351562 181.535156 184.347656 181.410156 184.347656 181.292969 C 184.332031 181.546875 184.328125 181.800781 184.328125 182.0625 C 184.328125 182.441406 184.335938 182.820312 184.359375 183.199219 C 184.382812 183.664062 184.695312 184.027344 185.074219 184.027344 L 239.097656 184.027344 C 239.476562 184.027344 239.789062 183.664062 239.8125 183.199219 C 239.835938 182.820312 239.847656 182.441406 239.847656 182.0625 C 239.847656 181.800781 239.84375 181.546875 239.828125 181.292969 C 239.828125 181.410156 239.824219 181.535156 239.8125 181.65625 Z M 239.8125 181.65625 "/><path style=" stroke:none;fill-rule:nonzero;fill:#2f6bca;fill-opacity:1;" d="M 239.8125 189.492188 C 239.789062 189.960938 239.476562 190.328125 239.097656 190.328125 L 238.753906 190.328125 L 238.550781 187.945312 L 234.625 187.945312 L 234.488281 190.328125 L 185.074219 190.328125 C 184.695312 190.328125 184.382812 189.960938 184.359375 189.492188 C 184.351562 189.375 184.347656 189.25 184.347656 189.132812 C 184.332031 189.394531 184.328125 189.648438 184.328125 189.902344 C 184.328125 190.28125 184.335938 190.660156 184.359375 191.039062 C 184.382812 191.503906 184.695312 191.867188 185.074219 191.867188 L 238.890625 191.867188 L 238.886719 191.867188 L 239.097656 191.867188 C 239.476562 191.867188 239.789062 191.503906 239.8125 191.039062 C 239.835938 190.660156 239.847656 190.28125 239.847656 189.902344 C 239.847656 189.648438 239.84375 189.394531 239.828125 189.132812 C 239.828125 189.25 239.824219 189.375 239.8125 189.492188 Z M 239.8125 189.492188 "/><path style=" stroke:none;fill-rule:nonzero;fill:#2f6bca;fill-opacity:1;" d="M 239.8125 197.332031 C 239.796875 197.652344 239.644531 197.917969 239.429688 198.058594 L 239.234375 195.800781 C 239.191406 195.789062 239.148438 195.785156 239.097656 195.785156 L 234.179688 195.785156 L 234.046875 198.160156 L 185.074219 198.160156 C 184.695312 198.160156 184.382812 197.800781 184.359375 197.332031 C 184.351562 197.214844 184.347656 197.089844 184.347656 196.972656 C 184.332031 197.226562 184.328125 197.480469 184.328125 197.742188 C 184.328125 198.117188 184.335938 198.496094 184.359375 198.875 C 184.382812 199.335938 184.695312 199.703125 185.074219 199.703125 L 233.960938 199.703125 L 233.960938 199.707031 L 239.097656 199.707031 C 239.105469 199.707031 239.109375 199.703125 239.113281 199.703125 C 239.1875 199.699219 239.257812 199.683594 239.324219 199.65625 C 239.332031 199.652344 239.34375 199.648438 239.355469 199.644531 C 239.425781 199.613281 239.488281 199.5625 239.546875 199.503906 C 239.546875 199.503906 239.550781 199.5 239.554688 199.5 L 239.554688 199.496094 C 239.699219 199.347656 239.800781 199.125 239.8125 198.875 C 239.835938 198.496094 239.847656 198.117188 239.847656 197.742188 C 239.847656 197.480469 239.84375 197.226562 239.828125 196.972656 C 239.828125 197.089844 239.824219 197.214844 239.8125 197.332031 Z M 239.8125 197.332031 "/><path style=" stroke:none;fill-rule:nonzero;fill:#2f6bca;fill-opacity:1;" d="M 239.828125 204.808594 C 239.828125 204.828125 239.824219 204.84375 239.824219 204.863281 C 239.820312 204.726562 239.820312 204.585938 239.8125 204.449219 C 239.789062 203.984375 239.476562 203.621094 239.097656 203.621094 L 233.742188 203.621094 L 233.605469 206 L 185.074219 206 C 184.695312 206 184.382812 205.636719 184.359375 205.171875 C 184.351562 205.050781 184.347656 204.929688 184.347656 204.808594 C 184.332031 205.070312 184.328125 205.324219 184.328125 205.578125 C 184.328125 205.957031 184.335938 206.335938 184.359375 206.714844 C 184.382812 207.175781 184.695312 207.542969 185.074219 207.542969 L 239.097656 207.542969 C 239.34375 207.542969 239.558594 207.390625 239.6875 207.15625 C 239.757812 207.027344 239.804688 206.878906 239.8125 206.714844 C 239.832031 206.4375 239.832031 206.160156 239.835938 205.882812 C 239.839844 205.78125 239.847656 205.683594 239.847656 205.582031 L 239.847656 205.578125 C 239.847656 205.324219 239.84375 205.070312 239.828125 204.808594 Z M 239.828125 204.808594 "/><g clip-rule="nonzero" clip-path="url(#1601d16048)"><path style=" stroke:none;fill-rule:nonzero;fill:#3475d0;fill-opacity:1;" d="M 262.449219 159.824219 L 262.449219 204.308594 C 262.449219 205.398438 261.585938 206.296875 260.464844 206.375 C 259.363281 206.449219 258.25 206.515625 257.121094 206.558594 L 257.121094 157.570312 C 258.25 157.613281 259.363281 157.679688 260.464844 157.753906 C 261.585938 157.839844 262.449219 158.738281 262.449219 159.824219 Z M 262.449219 159.824219 "/></g><g clip-rule="nonzero" clip-path="url(#0ca3667aa0)"><path style=" stroke:none;fill-rule:nonzero;fill:#093f8b;fill-opacity:1;" d="M 262.449219 189.777344 L 262.449219 204.308594 C 262.449219 205.398438 261.585938 206.296875 260.464844 206.375 C 259.363281 206.449219 258.25 206.515625 257.121094 206.558594 L 257.121094 192.027344 C 258.25 191.984375 259.363281 191.921875 260.464844 191.84375 C 261.585938 191.765625 262.449219 190.867188 262.449219 189.777344 Z M 262.449219 189.777344 "/></g><path style=" stroke:none;fill-rule:nonzero;fill:#579adf;fill-opacity:1;" d="M 257.859375 153.8125 C 254.703125 153.585938 251.46875 153.46875 248.171875 153.46875 C 244.875 153.46875 241.636719 153.585938 238.476562 153.8125 C 237.175781 153.90625 236.167969 154.949219 236.167969 156.214844 L 236.167969 207.914062 C 236.167969 209.179688 237.175781 210.226562 238.476562 210.320312 C 241.636719 210.546875 244.875 210.664062 248.171875 210.664062 C 251.46875 210.664062 254.703125 210.546875 257.859375 210.320312 C 259.160156 210.226562 260.167969 209.179688 260.167969 207.914062 L 260.167969 156.214844 C 260.167969 154.949219 259.160156 153.90625 257.859375 153.8125 Z M 257.859375 153.8125 "/><path style=" stroke:none;fill-rule:nonzero;fill:#3475d0;fill-opacity:1;" d="M 260.167969 192.027344 L 260.167969 207.914062 C 260.167969 209.179688 259.160156 210.226562 257.859375 210.320312 C 254.703125 210.546875 251.464844 210.664062 248.171875 210.664062 C 244.875 210.664062 241.636719 210.546875 238.476562 210.320312 C 237.175781 210.226562 236.167969 209.179688 236.167969 207.914062 L 236.167969 192.027344 C 236.597656 192.398438 237.171875 192.644531 237.804688 192.683594 C 241.183594 192.90625 244.644531 193.027344 248.171875 193.027344 C 251.695312 193.027344 255.152344 192.90625 258.53125 192.683594 C 259.171875 192.644531 259.738281 192.398438 260.167969 192.027344 Z M 260.167969 192.027344 "/><path style=" stroke:none;fill-rule:nonzero;fill:#79beed;fill-opacity:1;" d="M 260.167969 160.546875 L 260.167969 173.234375 C 259.738281 172.859375 259.164062 172.617188 258.53125 172.574219 C 255.152344 172.351562 251.691406 172.234375 248.164062 172.234375 C 244.640625 172.234375 241.183594 172.351562 237.804688 172.574219 C 237.167969 172.617188 236.601562 172.859375 236.167969 173.234375 L 236.167969 160.546875 C 236.601562 160.171875 237.167969 159.929688 237.804688 159.886719 C 241.183594 159.664062 244.640625 159.546875 248.164062 159.546875 C 251.691406 159.546875 255.152344 159.664062 258.53125 159.886719 C 259.164062 159.929688 259.738281 160.171875 260.167969 160.546875 Z M 260.167969 160.546875 "/><path style=" stroke:none;fill-rule:nonzero;fill:#a4dbf6;fill-opacity:1;" d="M 260.167969 162.117188 L 260.167969 166.433594 C 259.738281 166.0625 259.167969 165.820312 258.527344 165.777344 C 255.148438 165.554688 251.691406 165.433594 248.167969 165.433594 C 244.644531 165.433594 241.183594 165.554688 237.804688 165.777344 C 237.167969 165.820312 236.601562 166.0625 236.167969 166.433594 L 236.167969 162.117188 C 236.601562 161.742188 237.167969 161.5 237.804688 161.457031 C 241.183594 161.234375 244.644531 161.117188 248.167969 161.117188 C 251.691406 161.117188 255.148438 161.234375 258.527344 161.457031 C 259.167969 161.5 259.738281 161.742188 260.167969 162.117188 Z M 260.167969 162.117188 "/><path style=" stroke:none;fill-rule:nonzero;fill:#474c6f;fill-opacity:1;" d="M 167.851562 182.117188 L 167.855469 182.089844 L 167.855469 182.117188 Z M 167.851562 182.117188 "/><path style=" stroke:none;fill-rule:nonzero;fill:#474c6f;fill-opacity:1;" d="M 176.261719 182.117188 L 176.253906 182.117188 L 176.257812 182.089844 Z M 176.261719 182.117188 "/><path style=" stroke:none;fill-rule:nonzero;fill:#474c6f;fill-opacity:1;" d="M 167.851562 182.066406 L 167.855469 182.066406 L 167.855469 182.089844 Z M 167.851562 182.066406 "/><path style=" stroke:none;fill-rule:nonzero;fill:#474c6f;fill-opacity:1;" d="M 176.261719 182.066406 L 176.257812 182.089844 L 176.253906 182.066406 Z M 176.261719 182.066406 "/><path style=" stroke:none;fill-rule:nonzero;fill:#2658b8;fill-opacity:1;" d="M 117.683594 166.246094 L 125.371094 166.246094 L 125.371094 197.890625 L 117.683594 197.890625 Z M 117.683594 166.246094 "/><path style=" stroke:none;fill-rule:nonzero;fill:#113e8a;fill-opacity:1;" d="M 125.371094 188.535156 L 125.371094 197.890625 L 117.683594 197.890625 L 117.683594 166.246094 L 121.527344 166.246094 L 121.527344 184.675781 C 121.527344 186.808594 123.246094 188.535156 125.371094 188.535156 Z M 125.371094 188.535156 "/><g clip-rule="nonzero" clip-path="url(#edf33a7e31)"><path style=" stroke:none;fill-rule:nonzero;fill:#2658b8;fill-opacity:1;" d="M 112.550781 196.824219 L 112.550781 167.3125 L 114.585938 167.3125 L 114.585938 196.824219 Z M 112.550781 196.824219 "/></g><path style=" stroke:none;fill-rule:nonzero;fill:#113e8a;fill-opacity:1;" d="M 115.957031 199.527344 L 115.957031 164.609375 C 115.957031 164.609375 116.78125 166.105469 117.960938 164.609375 L 117.960938 199.527344 C 117.960938 199.527344 117.136719 198.03125 115.957031 199.527344 Z M 115.957031 199.527344 "/><path style=" stroke:none;fill-rule:nonzero;fill:#407ace;fill-opacity:1;" d="M 113.972656 163.519531 L 116.097656 163.519531 L 116.097656 200.617188 L 113.972656 200.617188 Z M 113.972656 163.519531 "/><path style=" stroke:none;fill-rule:nonzero;fill:#407ace;fill-opacity:1;" d="M 117.820312 163.519531 L 119.945312 163.519531 L 119.945312 200.617188 L 117.820312 200.617188 Z M 117.820312 163.519531 "/><path style=" stroke:none;fill-rule:nonzero;fill:#2658b8;fill-opacity:1;" d="M 117.820312 188.535156 L 119.945312 188.535156 L 119.945312 200.617188 L 117.820312 200.617188 Z M 117.820312 188.535156 "/><path style=" stroke:none;fill-rule:nonzero;fill:#2658b8;fill-opacity:1;" d="M 113.972656 188.535156 L 116.097656 188.535156 L 116.097656 200.617188 L 113.972656 200.617188 Z M 113.972656 188.535156 "/><path style=" stroke:none;fill-rule:nonzero;fill:#5ca1e3;fill-opacity:1;" d="M 117.820312 167.691406 L 119.945312 167.691406 L 119.945312 175.777344 L 117.820312 175.777344 Z M 117.820312 167.691406 "/><path style=" stroke:none;fill-rule:nonzero;fill:#5ca1e3;fill-opacity:1;" d="M 113.972656 167.691406 L 116.097656 167.691406 L 116.097656 175.777344 L 113.972656 175.777344 Z M 113.972656 167.691406 "/><path style=" stroke:none;fill-rule:nonzero;fill:#dbddf4;fill-opacity:1;" d="M 149.925781 143.449219 L 149.925781 190.152344 C 149.925781 201.148438 149.316406 211.472656 148.257812 220.4375 C 147.910156 223.371094 146.488281 225.941406 144.417969 227.777344 C 142.378906 229.582031 139.710938 230.667969 136.816406 230.667969 L 136.609375 230.667969 C 130.777344 230.664062 125.859375 226.253906 125.167969 220.441406 C 124.109375 211.476562 123.5 201.148438 123.5 190.152344 L 123.5 143.449219 Z M 149.925781 143.449219 "/><path style=" stroke:none;fill-rule:nonzero;fill:#fafcff;fill-opacity:1;" d="M 126.386719 205.144531 C 126.125 200.226562 125.992188 195.183594 125.992188 190.152344 L 125.992188 153.449219 C 128.398438 153.449219 130.351562 155.40625 130.351562 157.824219 L 130.351562 190.152344 C 130.351562 193.640625 130.417969 197.136719 130.546875 200.589844 C 130.636719 202.992188 128.777344 205.015625 126.386719 205.144531 Z M 126.386719 205.144531 "/><path style=" stroke:none;fill-rule:nonzero;fill:#9298bd;fill-opacity:1;" d="M 149.925781 143.449219 L 149.925781 190.152344 C 149.925781 196.777344 149.703125 203.15625 149.296875 209.140625 C 149.03125 213.09375 148.679688 216.875 148.257812 220.4375 C 148.195312 220.957031 148.101562 221.460938 147.972656 221.957031 C 147.488281 223.851562 146.546875 225.550781 145.269531 226.9375 C 143.15625 229.238281 140.136719 230.667969 136.816406 230.667969 L 136.609375 230.667969 C 130.777344 230.664062 125.859375 226.253906 125.167969 220.441406 C 124.75 216.875 124.398438 213.089844 124.125 209.132812 C 125.621094 214.117188 130.6875 217.714844 136.597656 217.71875 L 136.90625 217.71875 C 140.75 217.695312 143.910156 214.648438 144.195312 210.796875 C 144.679688 204.335938 144.941406 197.390625 144.941406 190.152344 L 144.941406 148.316406 L 123.5 148.316406 L 123.5 143.449219 Z M 149.925781 143.449219 "/><g clip-rule="nonzero" clip-path="url(#37f4bf3abd)"><path style=" stroke:none;fill-rule:nonzero;fill:#9298bd;fill-opacity:1;" d="M 123.988281 138.5625 L 149.03125 138.5625 L 149.03125 140.605469 L 123.988281 140.605469 Z M 123.988281 138.5625 "/></g><path style=" stroke:none;fill-rule:nonzero;fill:#666d97;fill-opacity:1;" d="M 151.722656 143.992188 L 121.296875 143.992188 C 121.296875 143.992188 122.789062 143.164062 121.296875 141.980469 L 151.722656 141.980469 C 151.722656 141.980469 150.234375 142.804688 151.722656 143.992188 Z M 151.722656 143.992188 "/><path style=" stroke:none;fill-rule:nonzero;fill:#dbddf4;fill-opacity:1;" d="M 120.210938 143.851562 L 152.808594 143.851562 L 152.808594 145.984375 L 120.210938 145.984375 Z M 120.210938 143.851562 "/><path style=" stroke:none;fill-rule:nonzero;fill:#dbddf4;fill-opacity:1;" d="M 120.210938 139.988281 L 152.808594 139.988281 L 152.808594 142.121094 L 120.210938 142.121094 Z M 120.210938 139.988281 "/><path style=" stroke:none;fill-rule:nonzero;fill:#9298bd;fill-opacity:1;" d="M 142.949219 139.988281 L 152.808594 139.988281 L 152.808594 142.121094 L 142.949219 142.121094 Z M 142.949219 139.988281 "/><path style=" stroke:none;fill-rule:nonzero;fill:#9298bd;fill-opacity:1;" d="M 142.949219 143.851562 L 152.808594 143.851562 L 152.808594 145.984375 L 142.949219 145.984375 Z M 142.949219 143.851562 "/><path style=" stroke:none;fill-rule:nonzero;fill:#fafcff;fill-opacity:1;" d="M 124.367188 139.988281 L 130.242188 139.988281 L 130.242188 142.121094 L 124.367188 142.121094 Z M 124.367188 139.988281 "/><path style=" stroke:none;fill-rule:nonzero;fill:#fafcff;fill-opacity:1;" d="M 124.367188 143.851562 L 130.242188 143.851562 L 130.242188 145.984375 L 124.367188 145.984375 Z M 124.367188 143.851562 "/><path style=" stroke:none;fill-rule:nonzero;fill:#666d97;fill-opacity:1;" d="M 138.90625 145.984375 L 138.90625 147.429688 C 138.90625 147.648438 138.730469 147.828125 138.511719 147.828125 L 134.507812 147.828125 C 134.289062 147.828125 134.113281 147.648438 134.113281 147.429688 L 134.113281 145.984375 Z M 138.90625 145.984375 "/><path style=" stroke:none;fill-rule:nonzero;fill:#474c6f;fill-opacity:1;" d="M 134.113281 145.984375 L 138.90625 145.984375 L 138.90625 146.773438 L 134.113281 146.773438 Z M 134.113281 145.984375 "/><path style=" stroke:none;fill-rule:nonzero;fill:#666d97;fill-opacity:1;" d="M 150.960938 145.984375 L 150.960938 147.429688 C 150.960938 147.648438 150.785156 147.828125 150.566406 147.828125 L 146.558594 147.828125 C 146.34375 147.828125 146.164062 147.648438 146.164062 147.429688 L 146.164062 145.984375 Z M 150.960938 145.984375 "/><path style=" stroke:none;fill-rule:nonzero;fill:#474c6f;fill-opacity:1;" d="M 146.164062 145.984375 L 150.960938 145.984375 L 150.960938 146.773438 L 146.164062 146.773438 Z M 146.164062 145.984375 "/><path style=" stroke:none;fill-rule:nonzero;fill:#666d97;fill-opacity:1;" d="M 126.855469 145.984375 L 126.855469 147.429688 C 126.855469 147.648438 126.675781 147.828125 126.460938 147.828125 L 122.453125 147.828125 C 122.234375 147.828125 122.058594 147.648438 122.058594 147.429688 L 122.058594 145.984375 Z M 126.855469 145.984375 "/><path style=" stroke:none;fill-rule:nonzero;fill:#474c6f;fill-opacity:1;" d="M 122.058594 145.984375 L 126.855469 145.984375 L 126.855469 146.773438 L 122.058594 146.773438 Z M 122.058594 145.984375 "/><path style=" stroke:none;fill-rule:nonzero;fill:#9298bd;fill-opacity:1;" d="M 182.507812 178.914062 L 182.507812 185.316406 C 182.507812 185.667969 182.222656 185.949219 181.878906 185.949219 L 179.582031 185.949219 L 179.582031 178.28125 L 181.878906 178.28125 C 182.222656 178.28125 182.507812 178.5625 182.507812 178.914062 Z M 182.507812 178.914062 "/><path style=" stroke:none;fill-rule:nonzero;fill:#9298bd;fill-opacity:1;" d="M 182.507812 159.640625 L 182.507812 166.046875 C 182.507812 166.394531 182.222656 166.679688 181.878906 166.679688 L 179.582031 166.679688 L 179.582031 159.007812 L 181.878906 159.007812 C 182.222656 159.007812 182.507812 159.289062 182.507812 159.640625 Z M 182.507812 159.640625 "/><path style=" stroke:none;fill-rule:nonzero;fill:#9298bd;fill-opacity:1;" d="M 182.507812 198.183594 L 182.507812 204.589844 C 182.507812 204.941406 182.222656 205.222656 181.878906 205.222656 L 179.582031 205.222656 L 179.582031 197.554688 L 181.878906 197.554688 C 182.222656 197.554688 182.507812 197.835938 182.507812 198.183594 Z M 182.507812 198.183594 "/><path style=" stroke:none;fill-rule:nonzero;fill:#474c6f;fill-opacity:1;" d="M 179.582031 197.554688 L 181.007812 197.554688 C 180.972656 200.144531 180.90625 202.707031 180.816406 205.222656 L 179.582031 205.222656 Z M 179.582031 197.554688 "/><path style=" stroke:none;fill-rule:nonzero;fill:#474c6f;fill-opacity:1;" d="M 179.582031 159.007812 L 181.042969 159.007812 L 181.042969 166.679688 L 179.582031 166.679688 Z M 179.582031 159.007812 "/><path style=" stroke:none;fill-rule:nonzero;fill:#474c6f;fill-opacity:1;" d="M 179.582031 178.28125 L 181.042969 178.28125 L 181.042969 185.949219 L 179.582031 185.949219 Z M 179.582031 178.28125 "/><path style=" stroke:none;fill-rule:nonzero;fill:#afb4d0;fill-opacity:1;" d="M 166.457031 178.28125 L 166.457031 185.949219 L 164.160156 185.949219 C 163.816406 185.949219 163.53125 185.667969 163.53125 185.316406 L 163.53125 178.914062 C 163.53125 178.5625 163.816406 178.28125 164.160156 178.28125 Z M 166.457031 178.28125 "/><path style=" stroke:none;fill-rule:nonzero;fill:#afb4d0;fill-opacity:1;" d="M 166.457031 197.554688 L 166.457031 205.222656 L 164.160156 205.222656 C 163.816406 205.222656 163.53125 204.941406 163.53125 204.589844 L 163.53125 198.183594 C 163.53125 197.835938 163.816406 197.554688 164.160156 197.554688 Z M 166.457031 197.554688 "/><path style=" stroke:none;fill-rule:nonzero;fill:#afb4d0;fill-opacity:1;" d="M 166.457031 159.007812 L 166.457031 166.679688 L 164.160156 166.679688 C 163.816406 166.679688 163.53125 166.394531 163.53125 166.046875 L 163.53125 159.640625 C 163.53125 159.289062 163.816406 159.007812 164.160156 159.007812 Z M 166.457031 159.007812 "/><path style=" stroke:none;fill-rule:nonzero;fill:#666d97;fill-opacity:1;" d="M 165.234375 159.007812 L 166.457031 159.007812 L 166.457031 166.679688 L 165.234375 166.679688 Z M 165.234375 159.007812 "/><path style=" stroke:none;fill-rule:nonzero;fill:#666d97;fill-opacity:1;" d="M 165.234375 178.28125 L 166.457031 178.28125 L 166.457031 185.949219 L 165.234375 185.949219 Z M 165.234375 178.28125 "/><path style=" stroke:none;fill-rule:nonzero;fill:#666d97;fill-opacity:1;" d="M 165.195312 197.554688 L 166.457031 197.554688 L 166.457031 205.222656 L 165.003906 205.222656 C 165.09375 202.707031 165.160156 200.144531 165.195312 197.554688 Z M 165.195312 197.554688 "/><path style=" stroke:none;fill-rule:nonzero;fill:#474c6f;fill-opacity:1;" d="M 177.289062 182.121094 L 173.796875 214.5 C 172.359375 212.558594 171.390625 214.5 171.390625 214.5 L 169.617188 182.066406 L 171.898438 149.6875 C 171.898438 149.6875 172.859375 151.632812 174.296875 149.6875 Z M 177.289062 182.121094 "/><path style=" stroke:none;fill-rule:nonzero;fill:#afb4d0;fill-opacity:1;" d="M 180.070312 149.6875 L 180.070312 193.820312 C 180.070312 200.941406 179.898438 207.863281 179.566406 214.503906 C 179.53125 215.132812 179.015625 215.617188 178.390625 215.617188 L 174.964844 215.617188 C 174.292969 215.617188 173.765625 215.058594 173.792969 214.386719 C 174.125 207.78125 174.296875 200.898438 174.296875 193.820312 L 174.296875 149.6875 C 174.296875 149.042969 174.824219 148.519531 175.46875 148.519531 L 178.902344 148.519531 C 179.546875 148.519531 180.070312 149.042969 180.070312 149.6875 Z M 180.070312 149.6875 "/><path style=" stroke:none;fill-rule:nonzero;fill:#afb4d0;fill-opacity:1;" d="M 171.898438 149.6875 L 171.898438 193.820312 C 171.898438 200.941406 171.722656 207.863281 171.390625 214.503906 C 171.359375 215.132812 170.84375 215.617188 170.21875 215.617188 L 166.789062 215.617188 C 166.117188 215.617188 165.589844 215.058594 165.621094 214.386719 C 165.953125 207.78125 166.125 200.898438 166.125 193.820312 L 166.125 149.6875 C 166.125 149.042969 166.652344 148.519531 167.292969 148.519531 L 170.730469 148.519531 C 171.375 148.519531 171.898438 149.042969 171.898438 149.6875 Z M 171.898438 149.6875 "/><path style=" stroke:none;fill-rule:nonzero;fill:#666d97;fill-opacity:1;" d="M 166.125 192.632812 L 171.898438 192.632812 L 171.898438 193.820312 C 171.898438 200.941406 171.722656 207.863281 171.390625 214.503906 C 171.359375 215.132812 170.84375 215.617188 170.21875 215.617188 L 166.789062 215.617188 C 166.117188 215.617188 165.589844 215.058594 165.621094 214.386719 C 165.953125 207.78125 166.125 200.898438 166.125 193.820312 Z M 166.125 192.632812 "/><path style=" stroke:none;fill-rule:nonzero;fill:#666d97;fill-opacity:1;" d="M 180.070312 192.632812 L 180.070312 193.820312 C 180.070312 200.941406 179.898438 207.863281 179.566406 214.503906 C 179.53125 215.132812 179.015625 215.617188 178.390625 215.617188 L 174.964844 215.617188 C 174.292969 215.617188 173.765625 215.058594 173.792969 214.386719 C 174.125 207.78125 174.296875 200.898438 174.296875 193.820312 L 174.296875 192.632812 Z M 180.070312 192.632812 "/><path style=" stroke:none;fill-rule:nonzero;fill:#dbddf4;fill-opacity:1;" d="M 166.125 154.1875 L 171.898438 154.1875 L 171.898438 171.230469 L 166.125 171.230469 Z M 166.125 154.1875 "/><path style=" stroke:none;fill-rule:nonzero;fill:#dbddf4;fill-opacity:1;" d="M 174.296875 154.1875 L 180.070312 154.1875 L 180.070312 171.230469 L 174.296875 171.230469 Z M 174.296875 154.1875 "/><path style=" stroke:none;fill-rule:nonzero;fill:#fafcff;fill-opacity:1;" d="M 166.125 156.148438 L 171.898438 156.148438 L 171.898438 160.515625 L 166.125 160.515625 Z M 166.125 156.148438 "/><path style=" stroke:none;fill-rule:nonzero;fill:#fafcff;fill-opacity:1;" d="M 174.296875 156.148438 L 180.070312 156.148438 L 180.070312 160.515625 L 174.296875 160.515625 Z M 174.296875 156.148438 "/><g clip-rule="nonzero" clip-path="url(#e215f8750f)"><path style=" stroke:none;fill-rule:nonzero;fill:#000000;fill-opacity:1;" d="M 193.460938 228.886719 L 193.28125 228.886719 L 193.28125 227.707031 C 193.28125 227.683594 193.269531 227.671875 193.242188 227.671875 L 192.472656 227.671875 C 192.445312 227.671875 192.433594 227.683594 192.433594 227.707031 L 192.433594 228.886719 L 192.253906 228.886719 C 192.226562 228.886719 192.214844 228.898438 192.214844 228.921875 L 192.214844 229.65625 L 191.765625 229.65625 C 191.726562 229.523438 191.640625 229.453125 191.5 229.441406 L 191.5 226.546875 L 191.839844 226.546875 C 191.863281 226.546875 191.878906 226.535156 191.878906 226.507812 L 191.878906 225.855469 C 191.878906 225.707031 191.824219 225.578125 191.714844 225.472656 C 191.605469 225.367188 191.472656 225.3125 191.320312 225.3125 L 189.289062 225.3125 C 189.160156 225.3125 189.042969 225.355469 188.941406 225.433594 C 188.839844 225.511719 188.773438 225.613281 188.746094 225.738281 L 188.675781 225.738281 C 188.53125 225.738281 188.40625 225.785156 188.304688 225.886719 C 188.199219 225.988281 188.148438 226.109375 188.148438 226.25 L 188.148438 230.164062 C 188.148438 230.28125 188.089844 230.335938 187.972656 230.335938 L 187.675781 230.335938 C 187.566406 230.335938 187.507812 230.390625 187.507812 230.5 C 187.507812 230.613281 187.566406 230.667969 187.675781 230.667969 L 187.972656 230.667969 C 188.113281 230.664062 188.234375 230.617188 188.335938 230.519531 C 188.4375 230.421875 188.488281 230.304688 188.488281 230.164062 L 188.488281 226.25 C 188.488281 226.125 188.550781 226.066406 188.675781 226.066406 L 188.730469 226.066406 L 188.730469 226.507812 C 188.730469 226.535156 188.742188 226.546875 188.769531 226.546875 L 189.109375 226.546875 L 189.109375 229.441406 C 188.925781 229.457031 188.832031 229.554688 188.832031 229.730469 L 188.832031 230.078125 C 188.832031 230.242188 188.914062 230.339844 189.082031 230.363281 L 189.082031 230.910156 L 188.742188 230.910156 C 188.667969 230.910156 188.605469 230.933594 188.554688 230.984375 C 188.5 231.035156 188.476562 231.097656 188.476562 231.167969 L 188.476562 231.265625 C 188.476562 231.289062 188.488281 231.304688 188.515625 231.304688 L 192.09375 231.304688 C 192.121094 231.304688 192.132812 231.289062 192.132812 231.265625 L 192.132812 231.167969 C 192.132812 231.097656 192.105469 231.035156 192.054688 230.984375 C 192.003906 230.933594 191.941406 230.910156 191.867188 230.910156 L 191.527344 230.910156 L 191.527344 230.363281 C 191.6875 230.339844 191.769531 230.246094 191.773438 230.085938 L 192.230469 230.085938 C 192.265625 230.242188 192.351562 230.367188 192.484375 230.460938 C 192.617188 230.550781 192.765625 230.589844 192.925781 230.574219 C 193.089844 230.554688 193.226562 230.488281 193.335938 230.371094 C 193.445312 230.25 193.5 230.113281 193.5 229.953125 L 193.5 228.921875 C 193.5 228.898438 193.488281 228.886719 193.460938 228.886719 Z M 193.203125 228.28125 L 192.511719 228.28125 L 192.511719 228.144531 L 193.203125 228.144531 Z M 192.511719 228.359375 L 193.203125 228.359375 L 193.203125 228.496094 L 192.511719 228.496094 Z M 193.203125 228.070312 L 192.511719 228.070312 L 192.511719 227.929688 L 193.203125 227.929688 Z M 192.511719 228.570312 L 193.203125 228.570312 L 193.203125 228.707031 L 192.511719 228.707031 Z M 193.203125 227.746094 L 193.203125 227.855469 L 192.511719 227.855469 L 192.511719 227.746094 Z M 192.511719 228.785156 L 193.203125 228.785156 L 193.203125 228.886719 L 192.511719 228.886719 Z M 191.421875 229.441406 L 191.308594 229.441406 L 191.308594 226.546875 L 191.421875 226.546875 Z M 190.4375 229.441406 L 190.4375 226.546875 L 191.230469 226.546875 L 191.230469 229.441406 Z M 190.167969 229.441406 L 189.378906 229.441406 L 189.378906 226.546875 L 190.167969 226.546875 Z M 190.246094 226.546875 L 190.359375 226.546875 L 190.359375 229.441406 L 190.246094 229.441406 Z M 188.410156 226.25 L 188.410156 230.164062 C 188.410156 230.28125 188.367188 230.382812 188.28125 230.464844 C 188.195312 230.546875 188.09375 230.589844 187.972656 230.589844 L 187.675781 230.589844 C 187.617188 230.589844 187.585938 230.5625 187.585938 230.5 C 187.585938 230.441406 187.617188 230.414062 187.675781 230.414062 L 187.972656 230.414062 C 188.042969 230.414062 188.101562 230.390625 188.152344 230.339844 C 188.203125 230.292969 188.226562 230.234375 188.226562 230.164062 L 188.226562 226.25 C 188.226562 226.128906 188.269531 226.027344 188.359375 225.941406 C 188.445312 225.855469 188.554688 225.8125 188.675781 225.8125 L 189.152344 225.8125 C 189.210938 225.8125 189.242188 225.839844 189.242188 225.902344 C 189.242188 225.960938 189.210938 225.988281 189.152344 225.988281 L 188.675781 225.988281 C 188.601562 225.988281 188.539062 226.015625 188.488281 226.066406 C 188.433594 226.117188 188.410156 226.175781 188.410156 226.25 Z M 188.808594 226.066406 L 189.152344 226.066406 C 189.242188 226.066406 189.296875 226.019531 189.316406 225.933594 C 189.316406 225.929688 189.316406 225.929688 189.320312 225.925781 C 189.320312 225.917969 189.320312 225.914062 189.320312 225.910156 C 189.320312 225.90625 189.320312 225.902344 189.320312 225.898438 C 189.320312 225.898438 189.320312 225.894531 189.320312 225.890625 C 189.320312 225.886719 189.320312 225.882812 189.320312 225.878906 C 189.316406 225.851562 189.304688 225.824219 189.285156 225.800781 L 189.285156 225.796875 L 189.28125 225.796875 C 189.277344 225.792969 189.273438 225.789062 189.273438 225.785156 L 189.269531 225.785156 L 189.269531 225.78125 C 189.265625 225.78125 189.261719 225.777344 189.257812 225.773438 L 189.253906 225.769531 C 189.230469 225.753906 189.203125 225.742188 189.171875 225.738281 C 189.167969 225.738281 189.164062 225.738281 189.160156 225.738281 C 189.15625 225.738281 189.15625 225.738281 189.152344 225.738281 L 188.824219 225.738281 C 188.886719 225.503906 189.042969 225.390625 189.289062 225.390625 L 191.320312 225.390625 C 191.453125 225.390625 191.566406 225.4375 191.660156 225.527344 C 191.753906 225.617188 191.800781 225.726562 191.800781 225.855469 L 191.800781 226.472656 L 188.808594 226.472656 Z M 189.300781 226.546875 L 189.300781 229.441406 L 189.1875 229.441406 L 189.1875 226.546875 Z M 189.160156 230.371094 L 189.339844 230.371094 L 189.339844 230.910156 L 189.160156 230.910156 Z M 189.785156 230.371094 L 189.785156 230.910156 L 189.417969 230.910156 L 189.417969 230.371094 Z M 190.488281 230.371094 L 190.488281 230.910156 L 190.121094 230.910156 L 190.121094 230.371094 Z M 191.1875 230.371094 L 191.1875 230.910156 L 190.824219 230.910156 L 190.824219 230.371094 Z M 190.746094 230.910156 L 190.566406 230.910156 L 190.566406 230.371094 L 190.746094 230.371094 Z M 190.042969 230.910156 L 189.863281 230.910156 L 189.863281 230.371094 L 190.042969 230.371094 Z M 192.054688 231.167969 L 192.054688 231.226562 L 188.554688 231.226562 L 188.554688 231.167969 C 188.554688 231.046875 188.617188 230.984375 188.742188 230.984375 L 191.867188 230.984375 C 191.992188 230.984375 192.054688 231.046875 192.054688 231.167969 Z M 191.265625 230.910156 L 191.265625 230.371094 L 191.449219 230.371094 L 191.449219 230.910156 Z M 191.695312 230.078125 C 191.695312 230.214844 191.625 230.289062 191.484375 230.292969 C 191.484375 230.292969 191.480469 230.292969 191.476562 230.292969 L 189.132812 230.292969 C 189.128906 230.292969 189.125 230.292969 189.121094 230.292969 C 188.980469 230.289062 188.910156 230.214844 188.910156 230.078125 L 188.910156 229.730469 C 188.910156 229.589844 188.984375 229.519531 189.132812 229.515625 L 190.203125 229.515625 C 190.203125 229.515625 190.207031 229.515625 190.207031 229.515625 L 190.398438 229.515625 C 190.402344 229.515625 190.402344 229.515625 190.40625 229.515625 L 191.476562 229.515625 C 191.601562 229.519531 191.675781 229.578125 191.695312 229.699219 C 191.695312 229.710938 191.695312 229.71875 191.695312 229.730469 Z M 191.773438 230.011719 L 191.773438 229.730469 L 192.214844 229.730469 L 192.214844 229.953125 C 192.214844 229.960938 192.214844 229.972656 192.214844 229.980469 C 192.214844 229.984375 192.214844 229.988281 192.214844 229.988281 C 192.21875 229.996094 192.21875 230.003906 192.21875 230.007812 L 192.21875 230.011719 Z M 193.421875 229.953125 C 193.421875 230.105469 193.367188 230.234375 193.257812 230.339844 C 193.144531 230.449219 193.011719 230.5 192.859375 230.5 C 192.703125 230.5 192.570312 230.449219 192.457031 230.339844 C 192.347656 230.234375 192.292969 230.105469 192.292969 229.953125 L 192.292969 228.960938 L 193.421875 228.960938 Z M 193.421875 229.953125 "/></g></g></svg>