<svg xmlns="http://www.w3.org/2000/svg" xmlns:xlink="http://www.w3.org/1999/xlink" width="1024" zoomAndPan="magnify" viewBox="0 0 768 767.999994" height="1024" preserveAspectRatio="xMidYMid meet" version="1.0"><defs><clipPath id="3381821d06"><path d="M 296.777344 288.734375 L 404.027344 288.734375 L 404.027344 395.984375 L 296.777344 395.984375 Z M 296.777344 288.734375 " clip-rule="nonzero"/></clipPath><clipPath id="e0c138d5fc"><path d="M 350.441406 288.734375 C 320.804688 288.734375 296.777344 312.761719 296.777344 342.402344 C 296.777344 372.039062 320.804688 396.066406 350.441406 396.066406 C 380.082031 396.066406 404.109375 372.039062 404.109375 342.402344 C 404.109375 312.761719 380.082031 288.734375 350.441406 288.734375 Z M 350.441406 288.734375 " clip-rule="nonzero"/></clipPath></defs><rect x="-76.8" width="921.6" fill="#ffffff" y="-76.799999" height="921.599993" fill-opacity="1"/><rect x="-76.8" width="921.6" fill="#ffffff" y="-76.799999" height="921.599993" fill-opacity="1"/><g clip-path="url(#3381821d06)"><g clip-path="url(#e0c138d5fc)"><path stroke-linecap="butt" transform="matrix(0.75, 0, 0, 0.75, 296.776102, 288.735006)" fill="none" stroke-linejoin="miter" d="M 71.553743 -0.000840952 C 32.038116 -0.000840952 0.00165578 32.035619 0.00165578 71.556454 C 0.00165578 111.072081 32.038116 143.108541 71.553743 143.108541 C 111.074578 143.108541 143.111038 111.072081 143.111038 71.556454 C 143.111038 32.035619 111.074578 -0.000840952 71.553743 -0.000840952 Z M 71.553743 -0.000840952 " stroke="#000000" stroke-width="8" stroke-opacity="1" stroke-miterlimit="4"/></g></g><path stroke-linecap="butt" transform="matrix(0.75, 0, 0, 0.75, 253.43999, 287.235006)" fill="none" stroke-linejoin="miter" d="M 0.00188772 1.999159 L 248.199817 1.999159 " stroke="#000000" stroke-width="4" stroke-opacity="1" stroke-miterlimit="4"/><path stroke-linecap="butt" transform="matrix(0.75, 0, 0, 0.75, 253.43999, 392.900333)" fill="none" stroke-linejoin="miter" d="M 0.00188772 1.997472 L 248.199817 1.997472 " stroke="#000000" stroke-width="4" stroke-opacity="1" stroke-miterlimit="4"/><path stroke-linecap="butt" transform="matrix(0, 0.75, -0.75, 0, 358.163656, 396.069814)" fill="none" stroke-linejoin="miter" d="M 0.000664663 8.499459 L 63.412126 8.499459 " stroke="#000000" stroke-width="17" stroke-opacity="1" stroke-miterlimit="4"/><path stroke-linecap="butt" transform="matrix(0.00983688, 0.749935, -0.749935, 0.00983688, 356.474193, 237.168231)" fill="none" stroke-linejoin="miter" d="M -0.00242791 8.49754 L 68.545094 8.500766 " stroke="#000000" stroke-width="17" stroke-opacity="1" stroke-miterlimit="4"/></svg>