<?xml version="1.0" encoding="UTF-8"?>
<svg version="1.1" xmlns="http://www.w3.org/2000/svg" width="204" height="207">
<path d="M0 0 C1.4659303 0.10644024 2.93264758 0.20260371 4.39996338 0.2878418 C6.44595306 0.41171795 8.48383209 0.57875687 10.52554321 0.75891113 C11.67780396 0.84793701 12.8300647 0.93696289 14.01724243 1.02868652 C18.70699563 2.53632832 21.49295758 5.10196033 24.34585571 9.09875488 C25.33685732 12.3161371 25.36501878 15.3611185 25.34683228 18.71154785 C25.36873627 19.65086655 25.39064026 20.59018524 25.41320801 21.55796814 C25.47442073 24.65299911 25.4834056 27.74534314 25.48648071 30.84094238 C25.50645942 33.00982748 25.52761725 35.17870201 25.54989624 37.3475647 C25.5872664 41.895429 25.59627955 46.44235697 25.58804321 50.99035645 C25.5817711 56.77618134 25.66660813 62.55657985 25.77624893 68.34121513 C25.84715354 72.8251989 25.8575637 77.30791219 25.85182953 81.79239273 C25.85818106 83.92206459 25.88512029 86.05179105 25.93430328 88.18090439 C26.20912851 101.40387282 24.83911106 109.14938228 16.0120554 119.21813679 C10.42913288 125.68809696 9.59157315 130.91453339 10.07632446 139.44641113 C10.09471878 140.70972763 10.1131131 141.97304413 10.13206482 143.27464294 C10.191718 146.57126409 10.30752716 149.8589378 10.45321655 153.15264893 C10.58828057 156.5378901 10.64600525 159.9244645 10.71109009 163.31164551 C10.85308245 169.91116794 11.0766578 176.5032468 11.34585571 183.09875488 C6.72585571 183.09875488 2.10585571 183.09875488 -2.65414429 183.09875488 C-2.32414429 182.10875488 -1.99414429 181.11875488 -1.65414429 180.09875488 C-6.27414429 180.09875488 -10.89414429 180.09875488 -15.65414429 180.09875488 C-15.65414429 179.10875488 -15.65414429 178.11875488 -15.65414429 177.09875488 C-14.99414429 177.09875488 -14.33414429 177.09875488 -13.65414429 177.09875488 C-13.98414429 170.82875488 -14.31414429 164.55875488 -14.65414429 158.09875488 C-17.06726929 161.22344238 -17.06726929 161.22344238 -19.52914429 164.41125488 C-20.03300659 165.06263428 -20.5368689 165.71401367 -21.05599976 166.38513184 C-23.00463949 168.91350951 -24.88276867 171.44169146 -26.65414429 174.09875488 C-29.7212868 175.24641652 -32.83813093 175.32551736 -36.09164429 175.41125488 C-37.48189819 175.4673291 -37.48189819 175.4673291 -38.90023804 175.52453613 C-43.77257425 174.77122458 -46.08234762 171.81073396 -49.07601929 168.08312988 C-50.2548481 166.44542811 -51.43364464 164.80770261 -52.61117554 163.16906738 C-53.60694349 161.79862064 -54.62826605 160.44680975 -55.65414429 159.09875488 C-55.98414429 159.09875488 -56.31414429 159.09875488 -56.65414429 159.09875488 C-56.15914429 169.49375488 -56.15914429 169.49375488 -55.65414429 180.09875488 C-60.27414429 180.42875488 -64.89414429 180.75875488 -69.65414429 181.09875488 C-69.65414429 181.75875488 -69.65414429 182.41875488 -69.65414429 183.09875488 C-73.94414429 183.09875488 -78.23414429 183.09875488 -82.65414429 183.09875488 C-82.58606567 181.43078857 -82.51798706 179.76282227 -82.44784546 178.04431152 C-82.23609671 172.46126466 -82.08792171 166.87880059 -81.98058605 161.29277897 C-81.91342173 157.91335508 -81.82279907 154.53836773 -81.6734314 151.16149902 C-81.51342013 147.25534155 -81.44152746 143.35527776 -81.38461304 139.44641113 C-81.31751633 138.26547379 -81.25041962 137.08453644 -81.18128967 135.86781311 C-81.17403778 127.3011744 -83.71490967 123.33074628 -89.13876343 117.1439209 C-97.70104891 107.11981715 -97.46360532 97.74849497 -97.16976929 85.02844238 C-97.16327205 82.84991331 -97.16155153 80.67136535 -97.16433716 78.49282837 C-97.15648722 73.9616271 -97.10524658 69.43382329 -97.01937866 64.90344238 C-96.91108931 59.10689164 -96.8921232 53.31428226 -96.90262222 47.51685905 C-96.90460518 43.03318446 -96.87054034 38.55037627 -96.82448578 34.06695938 C-96.80479427 31.92925291 -96.79372674 29.7914483 -96.79160309 27.65365219 C-96.78109749 24.67120885 -96.72464832 21.69312534 -96.65512085 18.71154785 C-96.6598642 17.83769943 -96.66460754 16.96385101 -96.66949463 16.06352234 C-96.46616525 10.2086669 -94.85896955 7.39060073 -90.59270859 3.39810371 C-87.03652071 1.01452089 -83.33560014 0.88658416 -79.15414429 0.72375488 C-77.95918335 0.64061035 -77.95918335 0.64061035 -76.74008179 0.55578613 C-75.02319873 0.44007144 -73.30515675 0.34077131 -71.58651733 0.25500488 C-68.24666432 0.07704252 -64.91531851 -0.17704323 -61.57992554 -0.42468262 C-41.14292435 -1.78440764 -20.42000391 -1.51208376 0 0 Z M-69.65414429 142.09875488 C-69.65414429 153.64875488 -69.65414429 165.19875488 -69.65414429 177.09875488 C-68.99414429 177.09875488 -68.33414429 177.09875488 -67.65414429 177.09875488 C-67.65414429 165.87875488 -67.65414429 154.65875488 -67.65414429 143.09875488 C-68.31414429 142.76875488 -68.97414429 142.43875488 -69.65414429 142.09875488 Z M-2.65414429 142.09875488 C-2.98414429 153.64875488 -3.31414429 165.19875488 -3.65414429 177.09875488 C-2.99414429 177.09875488 -2.33414429 177.09875488 -1.65414429 177.09875488 C-1.65414429 165.54875488 -1.65414429 153.99875488 -1.65414429 142.09875488 C-1.98414429 142.09875488 -2.31414429 142.09875488 -2.65414429 142.09875488 Z " fill="#8B8B8B" transform="translate(140.65414428710938,23.9012451171875)"/>
<path d="M0 0 C17.49 0 34.98 0 53 0 C56.37512867 6.75025734 56.37512867 6.75025734 56.38095093 10.26994324 C56.39364014 11.46220772 56.39364014 11.46220772 56.40658569 12.67855835 C56.400513 13.53124298 56.39444031 14.38392761 56.38818359 15.26245117 C56.39344055 16.17534409 56.39869751 17.088237 56.40411377 18.02879333 C56.41727351 21.03369459 56.40859208 24.0380625 56.3984375 27.04296875 C56.40045886 29.13471071 56.40337082 31.22645198 56.40713501 33.31819153 C56.41155246 37.69518769 56.40514388 42.07199987 56.39111328 46.44897461 C56.37399007 52.06487953 56.38388619 57.68035531 56.40183067 63.29624462 C56.412657 67.61215974 56.409228 71.92797261 56.4014473 76.24389076 C56.39944375 78.31518924 56.40190996 80.38649695 56.40888596 82.45778465 C56.41648492 85.34735202 56.40491944 88.23621749 56.38818359 91.12573242 C56.39729263 92.41386841 56.39729263 92.41386841 56.40658569 93.72802734 C56.34407013 99.53940712 56.34407013 99.53940712 54.70665932 101.73134327 C51.97811255 103.75962694 49.27859299 103.18558074 46 103 C45.95391602 103.64791 45.90783203 104.29582001 45.86035156 104.96336365 C45.27547553 112.28150321 44.13323334 119.39184861 42.75 126.59765625 C42.53182617 127.75373886 42.31365234 128.90982147 42.08886719 130.10093689 C41.6307371 132.52243336 41.1700918 134.94345521 40.70703125 137.36401367 C39.99627249 141.08199863 39.29442639 144.80158754 38.59375 148.52148438 C38.14635346 150.88030704 37.69845494 153.23903457 37.25 155.59765625 C37.03956055 156.71213638 36.82912109 157.82661652 36.61230469 158.97486877 C36.41540039 160.00031296 36.21849609 161.02575714 36.015625 162.08227539 C35.84321289 162.98619522 35.67080078 163.89011505 35.49316406 164.82142639 C35 167 35 167 34 169 C31.03 169 28.06 169 25 169 C23.41414625 165.37609762 21.83179067 161.7506775 20.25 158.125 C19.8065625 157.11179688 19.363125 156.09859375 18.90625 155.0546875 C16.15607996 148.74547387 13.52147509 142.40376831 11 136 C10.63293945 135.14293457 10.26587891 134.28586914 9.88769531 133.40283203 C9 131 9 131 9 128 C8.34 128 7.68 128 7 128 C4.33333333 121.33333333 1.66666667 114.66666667 -1 108 C-1.51624687 106.97823166 -1.51624687 106.97823166 -2.04292297 105.93582153 C-3.3887422 101.80753827 -3.28681434 97.93938783 -3.2746582 93.62329102 C-3.27976913 92.68610229 -3.28488007 91.74891357 -3.29014587 90.7833252 C-3.30402831 87.69012031 -3.30308615 84.59713856 -3.30078125 81.50390625 C-3.3046688 79.35066139 -3.30900359 77.1974173 -3.31376648 75.04417419 C-3.32122571 70.53259799 -3.32093945 66.02110005 -3.31567383 61.50952148 C-3.30987838 55.73136184 -3.32681363 49.95352265 -3.3500185 44.17541599 C-3.36475797 39.72900015 -3.36562726 35.28266146 -3.36250877 30.83622551 C-3.36302183 28.70599673 -3.36825673 26.57576362 -3.37832069 24.44555855 C-3.39067224 21.46552896 -3.38390097 18.4861233 -3.37231445 15.50610352 C-3.38378006 14.18971138 -3.38378006 14.18971138 -3.39547729 12.84672546 C-3.38846298 12.02953033 -3.38144867 11.21233521 -3.3742218 10.37037659 C-3.37438954 9.66709008 -3.37455729 8.96380358 -3.37473011 8.23920536 C-3 6 -3 6 0 0 Z " fill="#CCCCCC" transform="translate(74,28)"/>
<path d="M0 0 C2.85490236 0.11480031 5.7084588 0.24152964 8.5625 0.375 C9.76229492 0.42140625 9.76229492 0.42140625 10.98632812 0.46875 C15.95207604 0.71197031 20.31497234 1.28851815 25 3 C26.63512063 6.27024125 26.2473625 9.89582139 26.31982422 13.49438477 C26.34085205 14.3744519 26.36187988 15.25451904 26.38354492 16.16125488 C26.56729065 24.32667182 26.67283838 32.49353489 26.75568962 40.66053867 C26.81207514 46.13968618 26.89310141 51.61586536 27.03564453 57.09350586 C27.17315286 62.40001887 27.2447097 67.70385369 27.27234268 73.01203728 C27.29362649 75.02189861 27.33726278 77.03166831 27.405056 79.04049873 C27.82089721 91.96954121 26.26489206 99.21731756 17.67695141 109.0612793 C12.10569995 115.56335943 11.24463827 120.7967845 11.73046875 129.34765625 C11.74886307 130.61097275 11.76725739 131.87428925 11.78620911 133.17588806 C11.84586229 136.4725092 11.96167144 139.76018292 12.10736084 143.05389404 C12.24242485 146.43913522 12.30014954 149.82570961 12.36523438 153.21289062 C12.50722674 159.81241305 12.73080209 166.40449192 13 173 C8.38 173 3.76 173 -1 173 C-0.67 172.01 -0.34 171.02 0 170 C-4.62 170 -9.24 170 -14 170 C-14 169.01 -14 168.02 -14 167 C-13.34 167 -12.68 167 -12 167 C-12.495 157.595 -12.495 157.595 -13 148 C-15.413125 151.1246875 -15.413125 151.1246875 -17.875 154.3125 C-18.3788623 154.96387939 -18.88272461 155.61525879 -19.40185547 156.28637695 C-21.35049521 158.81475463 -23.22862438 161.34293658 -25 164 C-28.125 164.1875 -28.125 164.1875 -31 164 C-30.01 163.67 -29.02 163.34 -28 163 C-27.90106445 162.32976807 -27.80212891 161.65953613 -27.70019531 160.96899414 C-26.82794357 157.27043995 -25.35429251 153.94413239 -23.796875 150.49609375 C-23.47720764 149.77696304 -23.15754028 149.05783234 -22.82818604 148.31690979 C-21.8068942 146.02161087 -20.77878259 143.72944994 -19.75 141.4375 C-18.40930463 138.43715609 -17.07147033 135.43554347 -15.734375 132.43359375 C-15.40747681 131.7011142 -15.08057861 130.96863464 -14.74377441 130.21395874 C-12.50594693 125.18465318 -10.34884068 120.12982013 -8.31271362 115.01480103 C-7 112 -7 112 -5.48233032 109.40338135 C0.49503284 98.71377378 -0.14003495 88.01758954 -0.1953125 76.07421875 C-0.18404525 73.87317967 -0.1701572 71.6721526 -0.15377808 69.47114563 C-0.11792583 63.71885511 -0.11734305 57.9670981 -0.12445068 52.21472168 C-0.12536737 46.3285992 -0.09245147 40.44267265 -0.0625 34.55664062 C-0.00881227 23.03770447 0.00756512 11.51904756 0 0 Z M-1 132 C-1.33 143.55 -1.66 155.1 -2 167 C-1.34 167 -0.68 167 0 167 C0 155.45 0 143.9 0 132 C-0.33 132 -0.66 132 -1 132 Z " fill="#656565" transform="translate(139,34)"/>
<path d="M0 0 C9.20533203 -0.11577218 18.4104141 -0.20465277 27.61631489 -0.25906086 C31.89087419 -0.28517222 36.16493603 -0.32059721 40.43920898 -0.37719727 C44.5630044 -0.4314639 48.68632092 -0.46140894 52.81044579 -0.47438622 C54.38500702 -0.48363589 55.95954158 -0.50169858 57.53389931 -0.52865028 C59.7371273 -0.56487284 61.9383686 -0.56994869 64.1418457 -0.56762695 C66.02381401 -0.58428154 66.02381401 -0.58428154 67.94380188 -0.60127258 C71 0 71 0 72.80329895 2.48852539 C73.1982103 3.31731201 73.59312164 4.14609863 74 5 C76.00454941 5.85683024 76.00454941 5.85683024 78.2734375 5.92578125 C79.0984375 5.99990234 79.9234375 6.07402344 80.7734375 6.15039062 C82.06121094 6.23063477 82.06121094 6.23063477 83.375 6.3125 C84.22578125 6.38533203 85.0765625 6.45816406 85.953125 6.53320312 C89.97325413 6.861952 93.9641653 7.09134605 98 7 C98.33 6.34 98.66 5.68 99 5 C100 6 100 6 100.0625 9.0625 C100.041875 10.031875 100.02125 11.00125 100 12 C99.505 11.01 99.505 11.01 99 10 C96.48074611 9.43447509 96.48074611 9.43447509 93.43359375 9.1484375 C92.30888672 9.01953125 91.18417969 8.890625 90.02539062 8.7578125 C88.84138672 8.63148437 87.65738281 8.50515625 86.4375 8.375 C84.65569336 8.17390625 84.65569336 8.17390625 82.83789062 7.96875 C79.89274633 7.63756912 76.94690615 7.31505221 74 7 C74.0199855 8.19586731 74.03997101 9.39173462 74.06056213 10.62384033 C74.24422095 21.97819305 74.37849591 33.33223857 74.46630955 44.68774796 C74.51297656 50.52375169 74.57611534 56.35854204 74.67895508 62.19384766 C74.77784731 67.84149574 74.83078583 73.48798836 74.85389519 79.13643646 C74.87033031 81.27480986 74.90241599 83.41313096 74.95157051 85.5510025 C75.27403957 100.17830653 73.01335603 110.75421471 66.15257549 123.69673157 C64.52016527 126.95888572 63.20131865 130.32108829 61.88720322 133.72159958 C60.48957559 137.31080588 58.92525184 140.82371435 57.36328125 144.34375 C56.87591743 145.44740906 56.87591743 145.44740906 56.37870789 146.57336426 C55.70144415 148.10623441 55.02336495 149.63874453 54.34448242 151.17089844 C53.30274975 153.52200554 52.2634703 155.87418525 51.22460938 158.2265625 C50.56263924 159.72401989 49.90053485 161.22141795 49.23828125 162.71875 C48.92788406 163.42076538 48.61748688 164.12278076 48.29768372 164.84606934 C46.11794246 169.76411507 46.11794246 169.76411507 45 172 C35.06563859 172.78291815 35.06563859 172.78291815 30.9375 169.75 C28.41897565 166.17532028 27.1758456 163.92029375 26.34765625 159.5859375 C24.88391196 153.66329986 21.68597746 148.65936574 18.625 143.4375 C18.0475 142.43525391 17.47 141.43300781 16.875 140.40039062 C15.79294346 138.52408482 14.70701075 136.6500044 13.61572266 134.77905273 C12.47921622 132.8242548 11.3600825 130.859304 10.25378418 128.88725281 C8.67735037 126.11109343 6.99127688 123.43589021 5.24459839 120.76400757 C-3.06611039 107.58135122 -4.54759791 96.96161182 -4.1796875 81.6015625 C-4.16674005 79.42493836 -4.15829476 77.24828333 -4.15408325 75.07162476 C-4.13439144 70.55448899 -4.07945954 66.03981296 -3.99462891 61.5234375 C-3.88629838 55.74221895 -3.84004801 49.96266203 -3.81632805 44.18053627 C-3.79124509 38.63315871 -3.73704398 33.0861855 -3.6796875 27.5390625 C-3.67101528 26.48913746 -3.66234306 25.43921242 -3.65340805 24.35747147 C-3.623331 21.3883585 -3.57266847 18.42035293 -3.51513672 15.45166016 C-3.50864105 14.5789296 -3.50214539 13.70619904 -3.49545288 12.80702209 C-3.3720555 7.80014844 -2.67389143 4.38895787 0 0 Z M9 1 C6.16384372 6.217736 6.16384372 6.217736 5.60559082 11.32327271 C5.59424103 12.13035172 5.58289124 12.93743073 5.57119751 13.76896667 C5.57412811 14.63556412 5.57705872 15.50216156 5.58007812 16.39501953 C5.57160858 17.32271652 5.56313904 18.25041351 5.55441284 19.20622253 C5.53106613 22.26522645 5.53002055 25.3237263 5.53125 28.3828125 C5.52414432 30.52025552 5.51644473 32.65769665 5.50817871 34.7951355 C5.49473722 39.27558692 5.49316248 43.75586219 5.49902344 48.23632812 C5.50490284 53.95242775 5.4743988 59.66767313 5.43390656 65.38360786 C5.40793171 69.80026734 5.40516132 74.21672423 5.40879822 78.63344955 C5.40711446 80.7391969 5.39754434 82.84495436 5.37965393 84.95062637 C5.29269461 96.45602557 5.35950596 105.71784576 11 116 C11.55074576 117.32908402 12.08116723 118.66695141 12.58203125 120.015625 C13.41437557 122.20350151 14.24773726 124.39099121 15.08203125 126.578125 C15.38496094 127.37734375 15.68789062 128.1765625 16 129 C16.66 129 17.32 129 18 129 C18.0825 129.825 18.165 130.65 18.25 131.5 C18.98350986 134.92304599 20.21202304 137.54266597 21.8359375 140.62109375 C23.71289125 144.45688178 25.12593842 148.46316346 26.62890625 152.45703125 C28.91947415 158.37596311 31.46229969 164.18334672 34 170 C36.97 170 39.94 170 43 170 C45.52529643 159.62144169 47.59058066 149.16954909 49.58935547 138.67919922 C50.12552504 135.8722513 50.67003833 133.06700162 51.21484375 130.26171875 C53.72639585 117.21601007 53.72639585 117.21601007 55 104 C56.6396875 104.0928125 56.6396875 104.0928125 58.3125 104.1875 C61.86009397 104.34912496 61.86009397 104.34912496 63.70665932 102.73134327 C66.00051682 99.66064829 65.41427359 95.81519585 65.38818359 92.12573242 C65.39344055 91.21809647 65.39869751 90.31046051 65.40411377 89.37532043 C65.41733971 86.36852918 65.40856425 83.36226561 65.3984375 80.35546875 C65.40045802 78.26662596 65.40336927 76.17778386 65.40713501 74.08894348 C65.41156232 69.70660703 65.40511612 65.32445384 65.39111328 60.94213867 C65.37405297 55.32980535 65.38384012 49.71790341 65.40183067 44.10558605 C65.41268455 39.78954332 65.40921423 35.47360238 65.4014473 31.15755653 C65.39944808 29.0887376 65.40189476 27.01990939 65.40888596 24.9511013 C65.41652314 22.05463677 65.40486279 19.15886432 65.38818359 16.26245117 C65.39425629 15.40976654 65.40032898 14.55708191 65.40658569 13.67855835 C65.39389648 12.48629387 65.39389648 12.48629387 65.38095093 11.26994324 C65.37981985 10.58618213 65.37868877 9.90242102 65.37752342 9.19793987 C64.97695919 6.23054975 64.97695919 6.23054975 62 1 C44.51 1 27.02 1 9 1 Z " fill="#989898" transform="translate(65,27)"/>
<path d="M0 0 C1.084021 0.00523682 2.16804199 0.01047363 3.28491211 0.01586914 C5.03964844 0.02070313 5.03964844 0.02070313 6.82983398 0.02563477 C8.67738281 0.03820312 8.67738281 0.03820312 10.56225586 0.05102539 C12.41560547 0.05779297 12.41560547 0.05779297 14.30639648 0.06469727 C17.37089703 0.07652931 20.43530307 0.09301366 23.49975586 0.11352539 C23.49975586 1.43352539 23.49975586 2.75352539 23.49975586 4.11352539 C24.54776367 4.10192383 25.59577148 4.09032227 26.67553711 4.07836914 C28.05444158 4.06898884 29.43334797 4.05988889 30.81225586 4.05102539 C31.50254883 4.04264648 32.1928418 4.03426758 32.90405273 4.02563477 C36.04805836 4.01044633 38.49395605 4.11159212 41.49975586 5.11352539 C42.50926982 8.14206729 42.62080086 10.15357881 42.61328125 13.31933594 C42.61320572 14.3802092 42.61313019 15.44108246 42.61305237 16.53410339 C42.60789108 17.67792984 42.6027298 18.82175629 42.59741211 20.00024414 C42.59599716 21.17238968 42.59458221 22.34453522 42.59312439 23.55220032 C42.58751974 27.30183446 42.57496642 31.05140924 42.56225586 34.80102539 C42.55724146 37.34073807 42.55267845 39.88045169 42.54858398 42.42016602 C42.5375488 48.65130612 42.52080611 54.88241151 42.49975586 61.11352539 C41.50975586 60.78352539 40.51975586 60.45352539 39.49975586 60.11352539 C38.11924015 60.02293231 36.73480254 59.9856378 35.35131836 59.98413086 C34.52035645 59.9809787 33.68939453 59.97782654 32.83325195 59.97457886 C31.93944824 59.97660309 31.04564453 59.97862732 30.12475586 59.98071289 C28.74344482 59.9792778 28.74344482 59.9792778 27.33422852 59.97781372 C25.38745048 59.97713329 23.44067016 59.97897805 21.49389648 59.9831543 C18.51142285 59.98850446 15.52909981 59.98320468 12.54663086 59.97680664 C10.65600553 59.97746745 8.76538029 59.97874866 6.87475586 59.98071289 C5.98095215 59.97868866 5.08714844 59.97666443 4.16625977 59.97457886 C3.33529785 59.97773102 2.50433594 59.98088318 1.64819336 59.98413086 C0.91777832 59.98492645 0.18736328 59.98572205 -0.56518555 59.98654175 C-2.71954155 60.04583143 -2.71954155 60.04583143 -5.50024414 61.11352539 C-5.55100898 53.53298812 -5.58600508 45.95249479 -5.61010742 38.37182617 C-5.62015676 35.79368451 -5.6337984 33.21555421 -5.65112305 30.63745117 C-5.67541781 26.9289265 -5.6867381 23.22055271 -5.69555664 19.51196289 C-5.70587921 18.36174652 -5.71620178 17.21153015 -5.72683716 16.02645874 C-5.72824344 5.96623422 -5.72824344 5.96623422 -3.50024414 1.11352539 C-2.50024414 0.11352539 -2.50024414 0.11352539 0 0 Z " fill="#FEFEFE" transform="translate(86.500244140625,27.886474609375)"/>
<path d="M0 0 C0.83096191 -0.01268417 1.66192383 -0.02536835 2.51806641 -0.03843689 C3.41187012 -0.03550125 4.30567383 -0.03256561 5.2265625 -0.02954102 C6.14743652 -0.03478287 7.06831055 -0.04002472 8.01708984 -0.04542542 C9.96385693 -0.05184825 11.91066281 -0.05050524 13.85742188 -0.04199219 C16.84054417 -0.03347871 19.82175431 -0.0622451 22.8046875 -0.09399414 C24.69531192 -0.09560611 26.58593975 -0.09502871 28.4765625 -0.09204102 C29.81726807 -0.10889198 29.81726807 -0.10889198 31.18505859 -0.12608337 C37.23283735 -0.05780838 37.23283735 -0.05780838 39.91040039 1.94091797 C41.2287708 5.39125237 41.29975746 8.66756438 41.28515625 12.31030273 C41.2903981 13.07201782 41.29563995 13.83373291 41.30104065 14.61853027 C41.30745096 16.22557356 41.30613664 17.83266383 41.29760742 19.43969727 C41.28909003 21.89611376 41.31788014 24.35020921 41.34960938 26.80639648 C41.3512214 28.37019787 41.35064384 29.93400337 41.34765625 31.49780273 C41.36450722 32.59638611 41.36450722 32.59638611 41.38169861 33.71716309 C41.33800288 36.91954641 41.0347053 39.09714011 39.38305664 41.86499023 C35.60091286 44.16440526 32.20114077 43.97714161 27.8515625 43.93530273 C26.97886719 43.93912964 26.10617188 43.94295654 25.20703125 43.94689941 C23.36457158 43.94961764 21.52207326 43.94226268 19.6796875 43.92553711 C16.86110316 43.90412521 14.04506765 43.92534075 11.2265625 43.95092773 C9.43489021 43.94828444 7.64321951 43.94315943 5.8515625 43.93530273 C5.00980469 43.94339966 4.16804688 43.95149658 3.30078125 43.95983887 C-0.3148153 43.90195826 -2.54189201 43.76900956 -5.67993164 41.88085938 C-7.74713994 38.39427115 -7.70294336 35.1820668 -7.64453125 31.24389648 C-7.64598648 30.45761368 -7.64744171 29.67133087 -7.64894104 28.86122131 C-7.64728433 27.20285324 -7.63574839 25.54446944 -7.61499023 23.88623047 C-7.58599497 21.34658664 -7.59439253 18.80902581 -7.60742188 16.26928711 C-7.60118534 14.65664675 -7.59279505 13.04401298 -7.58203125 11.43139648 C-7.58496689 10.6719725 -7.58790253 9.91254852 -7.59092712 9.13011169 C-7.49666051 3.87127687 -7.49666051 3.87127687 -5.88246155 1.70544434 C-3.75470668 0.10855627 -2.64070229 0.01953365 0 0 Z " fill="#4BA7E5" transform="translate(88.1484375,86.595947265625)"/>
<path d="M0 0 C6.15234375 -0.09765625 6.15234375 -0.09765625 8 0 C9.89977088 1.89977088 9.12012643 4.68939065 9.12442017 7.21670532 C9.11902725 8.55781876 9.11902725 8.55781876 9.11352539 9.92602539 C9.11367142 10.86251419 9.11381744 11.79900299 9.1139679 12.76387024 C9.11326837 15.87515539 9.10547415 18.98638149 9.09765625 22.09765625 C9.09579221 24.24857043 9.09436824 26.39948503 9.09336853 28.55039978 C9.08954225 34.22381758 9.07971102 39.89720995 9.06866455 45.57061768 C9.0584528 51.35501766 9.05387142 57.13942173 9.04882812 62.92382812 C9.03808885 74.28256328 9.02101111 85.64127953 9 97 C9.66 96.67 10.32 96.34 11 96 C13.6723621 95.86584528 16.32250488 95.95681459 19 96 C15.83367225 102.29932574 11.9905087 107.9483486 7.86352539 113.63769531 C4.5054031 118.27035655 1.30652607 122.98856702 -1.84375 127.765625 C-4.97604022 132.46406033 -8.19031808 137.10532174 -11.40795898 141.74560547 C-13.87803311 145.26692099 -13.87803311 145.26692099 -16 149 C-15.34 149.33 -14.68 149.66 -14 150 C-15.06541016 151.26457031 -15.06541016 151.26457031 -16.15234375 152.5546875 C-17.08083279 153.6613714 -18.00921254 154.76814701 -18.9375 155.875 C-19.40607422 156.43058594 -19.87464844 156.98617187 -20.35742188 157.55859375 C-22.94066519 160.60061835 -22.94066519 160.60061835 -25 164 C-26.98 164 -28.96 164 -31 164 C-30.01 163.67 -29.02 163.34 -28 163 C-27.90106445 162.32976807 -27.80212891 161.65953613 -27.70019531 160.96899414 C-26.82794357 157.27043995 -25.35429251 153.94413239 -23.796875 150.49609375 C-23.47720764 149.77696304 -23.15754028 149.05783234 -22.82818604 148.31690979 C-21.8068942 146.02161087 -20.77878259 143.72944994 -19.75 141.4375 C-18.40930463 138.43715609 -17.07147033 135.43554347 -15.734375 132.43359375 C-15.40747681 131.7011142 -15.08057861 130.96863464 -14.74377441 130.21395874 C-12.50594693 125.18465318 -10.34884068 120.12982013 -8.31271362 115.01480103 C-7 112 -7 112 -5.48233032 109.40338135 C0.49503284 98.71377378 -0.14003495 88.01758954 -0.1953125 76.07421875 C-0.18404525 73.87317967 -0.1701572 71.6721526 -0.15377808 69.47114563 C-0.11792583 63.71885511 -0.11734305 57.9670981 -0.12445068 52.21472168 C-0.12536737 46.3285992 -0.09245147 40.44267265 -0.0625 34.55664062 C-0.00881227 23.03770447 0.00756512 11.51904756 0 0 Z " fill="#7F7F7F" transform="translate(139,34)"/>
<path d="M0 0 C17.49 0 34.98 0 53 0 C53 0.33 53 0.66 53 1 C38.48 1 23.96 1 9 1 C7.16834977 6.24916171 7.16834977 6.24916171 6.72584534 11.32327271 C6.71587021 12.13035172 6.70589508 12.93743073 6.69561768 13.76896667 C6.694953 14.63556412 6.69428833 15.50216156 6.69360352 16.39501953 C6.68528 17.32271652 6.67695648 18.25041351 6.66838074 19.20622253 C6.64433976 22.26512895 6.63551436 25.32382169 6.62890625 28.3828125 C6.61993316 30.52025412 6.61081119 32.65769512 6.60154724 34.7951355 C6.58506909 39.27554853 6.57735966 43.75588696 6.57446289 48.23632812 C6.56909036 53.95239155 6.53145139 59.66774452 6.48571873 65.38360786 C6.45583806 69.80024718 6.44873689 74.21671799 6.44773674 78.63344955 C6.44355379 80.73920814 6.43119769 82.84496813 6.41021919 84.95062637 C6.30544546 96.37970561 6.40482518 105.71966341 12 116 C12.78911013 117.84646236 13.56246668 119.69982234 14.3125 121.5625 C14.63863281 122.34753906 14.96476562 123.13257813 15.30078125 123.94140625 C16 126 16 126 16 129 C16.66 129 17.32 129 18 129 C18.30292969 129.81082031 18.60585937 130.62164062 18.91796875 131.45703125 C20.96902021 136.87811803 23.05420647 142.24348501 25.5 147.5 C28.84469371 154.70802664 32.27404278 162.21443212 34 170 C34.62648437 169.97679687 35.25296875 169.95359375 35.8984375 169.9296875 C36.71570313 169.91164062 37.53296875 169.89359375 38.375 169.875 C39.18710938 169.85179687 39.99921875 169.82859375 40.8359375 169.8046875 C43 170 43 170 45 172 C35.06563859 172.78291815 35.06563859 172.78291815 30.9375 169.75 C28.41897565 166.17532028 27.1758456 163.92029375 26.34765625 159.5859375 C24.88391196 153.66329986 21.68597746 148.65936574 18.625 143.4375 C18.0475 142.43525391 17.47 141.43300781 16.875 140.40039062 C15.79294346 138.52408482 14.70701075 136.6500044 13.61572266 134.77905273 C12.47921622 132.8242548 11.3600825 130.859304 10.25378418 128.88725281 C8.67735037 126.11109343 6.99127688 123.43589021 5.24459839 120.76400757 C-3.06611039 107.58135122 -4.54759791 96.96161182 -4.1796875 81.6015625 C-4.16674005 79.42493836 -4.15829476 77.24828333 -4.15408325 75.07162476 C-4.13439144 70.55448899 -4.07945954 66.03981296 -3.99462891 61.5234375 C-3.88629838 55.74221895 -3.84004801 49.96266203 -3.81632805 44.18053627 C-3.79124509 38.63315871 -3.73704398 33.0861855 -3.6796875 27.5390625 C-3.67101528 26.48913746 -3.66234306 25.43921242 -3.65340805 24.35747147 C-3.623331 21.3883585 -3.57266847 18.42035293 -3.51513672 15.45166016 C-3.50864105 14.5789296 -3.50214539 13.70619904 -3.49545288 12.80702209 C-3.47543213 11.99467606 -3.45541138 11.18233002 -3.43478394 10.34536743 C-3.42326231 9.64681452 -3.41174068 8.9482616 -3.39986992 8.22854042 C-3 6 -3 6 0 0 Z " fill="#B3B3B3" transform="translate(65,27)"/>
<path d="M0 0 C9.9 0.33 19.8 0.66 30 1 C30 1.33 30 1.66 30 2 C26.37 2 22.74 2 19 2 C19 2.66 19 3.32 19 4 C22.63 4 26.26 4 30 4 C29.1398065 25.0068308 28.06497574 46.00277081 27 67 C24.69 67 22.38 67 20 67 C11.26495795 41.00148875 11.26495795 41.00148875 8 30 C7.71705078 29.07026367 7.43410156 28.14052734 7.14257812 27.18261719 C6.14869986 23.91601731 5.16726863 20.64585709 4.1875 17.375 C3.86064209 16.30572266 3.53378418 15.23644531 3.19702148 14.13476562 C2.89868408 13.12865234 2.60034668 12.12253906 2.29296875 11.0859375 C2.0199292 10.1789209 1.74688965 9.2719043 1.46557617 8.33740234 C1 6 1 6 2 3 C1.34 2.67 0.68 2.34 0 2 C0 1.34 0 0.68 0 0 Z " fill="#E5E5E5" transform="translate(81,130)"/>
<path d="M0 0 C2.78125 -0.33203125 2.78125 -0.33203125 6 0 C7.90625 2.23828125 7.90625 2.23828125 9.5 5.3125 C10.09039062 6.4159375 10.68078125 7.519375 11.2890625 8.65625 C11.85367188 9.7596875 12.41828125 10.863125 13 12 C13.95308836 13.77366176 14.91119587 15.54463828 15.875 17.3125 C16.35324219 18.199375 16.83148438 19.08625 17.32421875 20 C19.7243259 24.29669531 22.27307607 28.50051843 24.84130859 32.69848633 C28.29517691 38.3755255 30.98894962 43.35595466 32 50 C32.97348627 52.28480253 32.97348627 52.28480253 34 54 C29.58151339 50.84393813 27.05010754 47.4057109 24 43 C23.67 43 23.34 43 23 43 C23.33 49.93 23.66 56.86 24 64 C19.38 64.33 14.76 64.66 10 65 C10 65.66 10 66.32 10 67 C7.03 67 4.06 67 1 67 C1 47.86 1 28.72 1 9 C3.475 10.98 3.475 10.98 6 13 C5.566875 12.39671875 5.13375 11.7934375 4.6875 11.171875 C3.8521875 9.97304687 3.8521875 9.97304687 3 8.75 C2.1646875 7.56664062 2.1646875 7.56664062 1.3125 6.359375 C0 4 0 4 0 0 Z M10 26 C10 37.55 10 49.1 10 61 C10.66 61 11.32 61 12 61 C12 49.78 12 38.56 12 27 C11.34 26.67 10.68 26.34 10 26 Z " fill="#9A9A9A" transform="translate(61,140)"/>
<path d="M0 0 C0.33 0 0.66 0 1 0 C1.20996276 12.43186888 1.36916314 24.86330543 1.46630955 37.29659653 C1.51297228 43.07207301 1.57610259 48.84632295 1.67895508 54.62109375 C1.77786347 60.21038838 1.83078902 65.7985152 1.85389519 71.38861847 C1.87032753 73.50466514 1.90240749 75.62065913 1.95157051 77.73619843 C2.27598582 92.29586067 -0.03027611 102.80881718 -6.8474865 115.69333076 C-8.47783661 118.95635409 -9.79714981 122.31858134 -11.11124706 125.71898079 C-12.51946093 129.33321682 -14.09738155 132.86987928 -15.671875 136.4140625 C-15.99915588 137.15457855 -16.32643677 137.8950946 -16.66363525 138.65805054 C-17.69078068 140.98109809 -18.72034006 143.30306605 -19.75 145.625 C-20.4545885 147.2173765 -21.15901687 148.80982387 -21.86328125 150.40234375 C-23.57367604 154.26904852 -25.28623383 158.13478835 -27 162 C-27.99 162 -28.98 162 -30 162 C-26.52302624 139.90291679 -22.24025046 117.96042377 -18 96 C-16.906875 95.87625 -15.81375 95.7525 -14.6875 95.625 C-10.92618198 95.24535199 -10.92618198 95.24535199 -8 93 C-8 94.32 -8 95.64 -8 97 C-5.36 97 -2.72 97 0 97 C0 64.99 0 32.98 0 0 Z " fill="#B1B1B1" transform="translate(138,35)"/>
<path d="M0 0 C0.33 0 0.66 0 1 0 C1 17.49 1 34.98 1 53 C1.66 53 2.32 53 3 53 C3 35.51 3 18.02 3 0 C3.33 0 3.66 0 4 0 C4.33 18.81 4.66 37.62 5 57 C0.38 57 -4.24 57 -9 57 C-8.67 56.01 -8.34 55.02 -8 54 C-12.62 54 -17.24 54 -22 54 C-22 53.01 -22 52.02 -22 51 C-21.34 51 -20.68 51 -20 51 C-20.33 43.74 -20.66 36.48 -21 29 C-20.34 29 -19.68 29 -19 29 C-19 36.59 -19 44.18 -19 52 C-16.36 52 -13.72 52 -11 52 C-11.01047363 50.98574951 -11.02094727 49.97149902 -11.03173828 48.92651367 C-11.06793589 45.16385426 -11.09089956 41.40121024 -11.10986328 37.63842773 C-11.11992142 36.00982068 -11.13356958 34.38123168 -11.15087891 32.75268555 C-11.17513574 30.41190128 -11.18648483 28.07135576 -11.1953125 25.73046875 C-11.20563507 25.00224411 -11.21595764 24.27401947 -11.22659302 23.52372742 C-11.22742249 19.78724931 -11.12883296 18.19324944 -9 15 C-8.34 15 -7.68 15 -7 15 C-6.8453125 13.1128125 -6.8453125 13.1128125 -6.6875 11.1875 C-6.35342189 8.49101243 -6.17022107 7.23682932 -4.5625 5 C-3 4 -3 4 -1 4 C-0.67 2.68 -0.34 1.36 0 0 Z M-9 16 C-9.33 27.55 -9.66 39.1 -10 51 C-9.34 51 -8.68 51 -8 51 C-8 39.45 -8 27.9 -8 16 C-8.33 16 -8.66 16 -9 16 Z " fill="#646464" transform="translate(147,150)"/>
<path d="M0 0 C1.32 0.33 2.64 0.66 4 1 C3.56647969 7.40421141 3.56647969 7.40421141 0.97094727 10.1340332 C-0.25023804 11.17563599 -0.25023804 11.17563599 -1.49609375 12.23828125 C-9.43338769 21.43057035 -7.19716026 34.74438715 -7.0625 46.1875 C-7.06557785 48.69076356 -7.07270042 51.19402561 -7.08398438 53.69726562 C-7.10273448 59.79894023 -7.07114199 65.89874611 -7 72 C-7.66 72 -8.32 72 -9 72 C-9.33 55.17 -9.66 38.34 -10 21 C-14.72288227 25.1934339 -14.72288227 25.1934339 -16.125 30.125 C-17 34 -17 34 -18.52270508 35.2590332 C-20.88147963 38.03880867 -20.48112568 41.24394358 -20.51171875 44.73046875 C-20.52966995 45.48088943 -20.54762115 46.23131012 -20.56611633 47.00447083 C-20.62025187 49.3987569 -20.65412416 51.79284331 -20.6875 54.1875 C-20.72067036 55.81187677 -20.75515976 57.43622717 -20.79101562 59.06054688 C-20.8759797 63.04022056 -20.94277465 67.0198347 -21 71 C-20.34 71.33 -19.68 71.66 -19 72 C-22.96 72 -26.92 72 -31 72 C-30.01 71.505 -30.01 71.505 -29 71 C-29 63.41 -29 55.82 -29 48 C-29.66 48 -30.32 48 -31 48 C-31.33 49.32 -31.66 50.64 -32 52 C-32.66 52 -33.32 52 -34 52 C-32.63564187 48.21646806 -30.90535818 45.18200092 -28.5859375 41.90234375 C-27.57370117 40.46145386 -27.57370117 40.46145386 -26.54101562 38.99145508 C-25.82623047 37.9836499 -25.11144531 36.97584473 -24.375 35.9375 C-22.91324383 33.85734588 -21.45229676 31.77662295 -19.9921875 29.6953125 C-19.29577148 28.7043457 -18.59935547 27.71337891 -17.88183594 26.69238281 C-14.49922126 21.85280384 -11.2449915 16.93267682 -8 12 C-6.50277502 9.74814689 -5.001372 7.49908956 -3.5 5.25 C-2.8296875 4.24453125 -2.159375 3.2390625 -1.46875 2.203125 C-0.9840625 1.47609375 -0.499375 0.7490625 0 0 Z " fill="#4D4D4D" transform="translate(157,131)"/>
<path d="M0 0 C2.97 0.495 2.97 0.495 6 1 C6.02312202 12.84765173 6.04091437 24.69529814 6.05181217 36.5429678 C6.05704131 42.04370862 6.06413951 47.54443405 6.07543945 53.04516602 C6.08626725 58.3489656 6.0922766 63.65275035 6.09487724 68.95656013 C6.09673169 70.98485612 6.10035267 73.01315126 6.10573006 75.04144096 C6.11293906 77.87196514 6.113991 80.70242718 6.11352539 83.53295898 C6.11712067 84.38028091 6.12071594 85.22760284 6.12442017 86.1006012 C6.11405216 91.88594784 6.11405216 91.88594784 5 93 C3.35 93 1.7 93 0 93 C0 62.31 0 31.62 0 0 Z " fill="#4C4C4C" transform="translate(158,36)"/>
<path d="M0 0 C9.15492296 9.15492296 9.15492296 9.15492296 9.45410156 15.99560547 C9.45347282 17.95291375 9.43114275 19.91029854 9.390625 21.8671875 C9.38496521 22.90191193 9.37930542 23.93663635 9.37347412 25.00271606 C9.35115852 28.29395629 9.30096966 31.58409114 9.25 34.875 C9.22992884 37.1119634 9.21167915 39.34894393 9.1953125 41.5859375 C9.15130926 47.05771486 9.08231372 52.52867028 9 58 C6.03 58 3.06 58 0 58 C0 38.86 0 19.72 0 0 Z " fill="#646464" transform="translate(62,149)"/>
<path d="M0 0 C3.63 0 7.26 0 11 0 C10.1398065 21.0068308 9.06497574 42.00277081 8 63 C7.01 63 6.02 63 5 63 C4.28352815 55.15330856 3.57196164 47.30618326 2.86376953 39.45874023 C2.6227317 36.79030962 2.38014782 34.12202633 2.13623047 31.45385742 C1.78578989 27.61402999 1.43938477 23.77385638 1.09375 19.93359375 C0.9843811 18.74479111 0.87501221 17.55598846 0.7623291 16.3311615 C0.27407319 10.86527411 -0.1393809 5.48812313 0 0 Z " fill="#E5E5E5" transform="translate(100,134)"/>
<path d="M0 0 C2.97 0 5.94 0 9 0 C9.55200672 5.49513295 10.10333037 10.99033388 10.65405273 16.4855957 C10.84104474 18.35052286 11.02821533 20.21543213 11.21557617 22.08032227 C11.74155181 27.31623438 12.26472764 32.5524065 12.78170776 37.78921509 C12.97008776 39.69705964 13.15984106 41.60476851 13.34985352 43.51245117 C13.8057151 48.2551105 14.11862554 52.91682883 14.0625 57.6875 C14.05347656 58.70199219 14.04445313 59.71648437 14.03515625 60.76171875 C14.02355469 61.50035156 14.01195313 62.23898438 14 63 C13.01 63 12.02 63 11 63 C10.87471924 62.28271729 10.74943848 61.56543457 10.62036133 60.82641602 C8.13264575 46.62782165 5.58503958 32.45637706 2.61254883 18.34985352 C1.34869101 12.2331952 0.52164226 6.225687 0 0 Z " fill="#FCFDFC" transform="translate(91,134)"/>
<path d="M0 0 C-1.25476045 3.41342417 -2.67355828 6.19004706 -4.8125 9.125 C-8.35951075 14.08049111 -11.81604232 19.0909075 -15.25 24.125 C-18.574802 28.99420125 -21.90117956 33.86211706 -25.25 38.71484375 C-25.7562793 39.44880371 -26.26255859 40.18276367 -26.78417969 40.93896484 C-27.7421184 42.32673149 -28.70106041 43.71380626 -29.66113281 45.10009766 C-31.99508995 48.45027342 -31.99508995 48.45027342 -34 52 C-33.34 52.33 -32.68 52.66 -32 53 C-33.11733729 54.50571657 -34.24410035 56.00444292 -35.375 57.5 C-36.00148438 58.3353125 -36.62796875 59.170625 -37.2734375 60.03125 C-38.12808594 61.00578125 -38.12808594 61.00578125 -39 62 C-39.66 62 -40.32 62 -41 62 C-40.91253716 60.56138706 -40.80434652 59.12402492 -40.6875 57.6875 C-40.62949219 56.88699219 -40.57148437 56.08648437 -40.51171875 55.26171875 C-39.90815582 52.59406275 -38.97650042 51.81349008 -37 50 C-36.5359375 48.5459375 -36.5359375 48.5459375 -36.0625 47.0625 C-35 44 -35 44 -33.11035156 42.11938477 C-30.87592872 39.87539764 -29.63157644 37.82719761 -28.171875 35.02734375 C-27.65947266 34.05780762 -27.14707031 33.08827148 -26.61914062 32.08935547 C-26.08482422 31.06986816 -25.55050781 30.05038086 -25 29 C-23.88330395 26.93712333 -22.7634766 24.87593884 -21.640625 22.81640625 C-20.51024655 20.73186307 -19.38003904 18.64722719 -18.25 16.5625 C-17.38568359 14.97018555 -17.38568359 14.97018555 -16.50390625 13.34570312 C-15.95089844 12.32541016 -15.39789063 11.30511719 -14.828125 10.25390625 C-14.3321582 9.33939697 -13.83619141 8.4248877 -13.32519531 7.48266602 C-12.48770094 5.91367554 -11.68719423 4.32386383 -10.94042969 2.7097168 C-10 1 -10 1 -8.125 0.390625 C-7.42375 0.34421875 -6.7225 0.2978125 -6 0.25 C-4.948125 0.16492188 -4.948125 0.16492188 -3.875 0.078125 C-2.58419085 0.02434129 -1.29192916 0 0 0 Z " fill="#6E6E6E" transform="translate(157,131)"/>
<path d="M0 0 C3.38126031 0.02100162 6.01391871 0.05132932 8.54443359 2.48583984 C10.03269424 4.49967325 11.37483052 6.55512037 12.6875 8.6875 C13.14705078 9.39583984 13.60660156 10.10417969 14.08007812 10.83398438 C14.97966627 12.22379031 15.87043926 13.61934947 16.75146484 15.02099609 C18.45115732 17.7151117 20.22254374 20.35671024 22 23 C21.67 23.66 21.34 24.32 21 25 C19.68 23.35 18.36 21.7 17 20 C16.67 38.81 16.34 57.62 16 77 C14.68 77 13.36 77 12 77 C12.02886795 76.31112198 12.0577359 75.62224396 12.08747864 74.91249084 C12.35067311 68.34053805 12.54719856 61.77010446 12.67355824 55.19402409 C12.74072256 51.81460019 12.83134522 48.43961285 12.98071289 45.06274414 C13.60028138 29.93798385 14.00728818 18.28626557 3.58320618 6.51368713 C2.10251043 4.96280884 0.55802596 3.47317293 -1 2 C-0.67 1.34 -0.34 0.68 0 0 Z " fill="#949494" transform="translate(46,130)"/>
<path d="M0 0 C2.64 0 5.28 0 8 0 C7.4792299 4.98809912 6.39745908 8.81984902 4.1875 13.3125 C2.40240371 16.96988238 0.73270432 20.62068658 -0.74609375 24.41015625 C-3.64806055 31.76472202 -6.97798421 38.92987033 -10.25 46.125 C-10.90645131 47.57282541 -11.5627028 49.02074143 -12.21875 50.46875 C-13.81020067 53.98021452 -15.40434208 57.49044544 -17 61 C-18.18328773 57.45013682 -17.7439034 56.43126502 -16.62890625 52.93359375 C-16.14381592 51.38720215 -16.14381592 51.38720215 -15.64892578 49.80957031 C-15.29040527 48.69678711 -14.93188477 47.58400391 -14.5625 46.4375 C-13.82133275 44.08732844 -13.08045607 41.73706524 -12.33984375 39.38671875 C-11.95425293 38.17290527 -11.56866211 36.9590918 -11.17138672 35.70849609 C-9.28427626 29.73408845 -7.45741516 23.7413607 -5.625 17.75 C-1.82347796 5.3415011 -1.82347796 5.3415011 0 0 Z " fill="#9C9C9C" transform="translate(129,133)"/>
<path d="M0 0 C5.61 0 11.22 0 17 0 C20.37512867 6.75025734 20.37512867 6.75025734 20.38095093 10.26994324 C20.39364014 11.46220772 20.39364014 11.46220772 20.40658569 12.67855835 C20.400513 13.53124298 20.39444031 14.38392761 20.38818359 15.26245117 C20.39344055 16.17534409 20.39869751 17.088237 20.40411377 18.02879333 C20.41727351 21.03369459 20.40859208 24.0380625 20.3984375 27.04296875 C20.40045886 29.13471071 20.40337082 31.22645198 20.40713501 33.31819153 C20.41155246 37.69518769 20.40514388 42.07199987 20.39111328 46.44897461 C20.37399007 52.06487953 20.38388619 57.68035531 20.40183067 63.29624462 C20.412657 67.61215974 20.409228 71.92797261 20.4014473 76.24389076 C20.39944375 78.31518924 20.40190996 80.38649695 20.40888596 82.45778465 C20.41648492 85.34735202 20.40491944 88.23621749 20.38818359 91.12573242 C20.39729263 92.41386841 20.39729263 92.41386841 20.40658569 93.72802734 C20.34366138 99.57740427 20.34366138 99.57740427 18.60187721 101.71925259 C16.52039805 103.3834557 15.31419502 103.37993762 12.66796875 103.38818359 C11.79696533 103.39764008 10.92596191 103.40709656 10.02856445 103.4168396 C9.09101318 103.41076691 8.15346191 103.40469421 7.1875 103.3984375 C6.22223389 103.40130768 5.25696777 103.40417786 4.26245117 103.40713501 C2.22151096 103.40917661 0.18055123 103.40364007 -1.86035156 103.39111328 C-4.9880744 103.3750612 -8.11450496 103.39095895 -11.2421875 103.41015625 C-13.22396119 103.40817384 -15.20573408 103.4043302 -17.1875 103.3984375 C-18.12505127 103.40451019 -19.06260254 103.41058289 -20.02856445 103.4168396 C-20.89956787 103.40738312 -21.77057129 103.39792664 -22.66796875 103.38818359 C-23.43391357 103.38579681 -24.1998584 103.38341003 -24.98901367 103.38095093 C-27.58232403 102.88968752 -28.46065522 102.1252556 -30 100 C-30.36076355 98.12068176 -30.36076355 98.12068176 -30.34057617 95.98754883 C-30.34034958 95.18694534 -30.34012299 94.38634186 -30.33988953 93.56147766 C-30.32440567 92.70201035 -30.30892181 91.84254303 -30.29296875 90.95703125 C-30.28872391 90.0734343 -30.28447906 89.18983734 -30.28010559 88.27946472 C-30.26331043 85.45683339 -30.22565697 82.63491559 -30.1875 79.8125 C-30.17245423 77.89909885 -30.15876564 75.98568651 -30.14648438 74.07226562 C-30.11340419 69.38123541 -30.0616163 64.69073869 -30 60 C-28 62 -28 62 -27.82055664 65.48413086 C-27.84121953 66.9778575 -27.87177012 68.47146746 -27.91015625 69.96484375 C-27.93057809 71.58528346 -27.95075274 73.20572629 -27.97070312 74.82617188 C-28.01422557 77.38514427 -28.0626348 79.9439088 -28.11645508 82.50268555 C-28.16468827 84.96923143 -28.19459229 87.43549816 -28.22265625 89.90234375 C-28.24441422 90.66804184 -28.26617218 91.43373993 -28.28858948 92.22264099 C-28.412507 96.2169887 -28.412507 96.2169887 -26.72850037 99.70158386 C-23.65082234 102.01347624 -19.76726134 101.42490384 -16.0625 101.3984375 C-14.7477771 101.40274277 -14.7477771 101.40274277 -13.40649414 101.40713501 C-11.55386712 101.40917598 -9.70121858 101.40364378 -7.84863281 101.39111328 C-5.01057821 101.37505984 -2.17394773 101.39096055 0.6640625 101.41015625 C2.46354481 101.40817382 4.26302624 101.40433016 6.0625 101.3984375 C6.91255615 101.40451019 7.7626123 101.41058289 8.63842773 101.4168396 C12.94604505 101.48749293 12.94604505 101.48749293 16.72525501 99.71895123 C19.00024007 96.65120953 18.38673507 92.79776543 18.34057617 89.12231445 C18.34101425 88.21479431 18.34145233 87.30727417 18.34190369 86.37225342 C18.33981169 83.36904474 18.31646112 80.36639255 18.29296875 77.36328125 C18.28737426 75.28248906 18.28310347 73.20169293 18.28010559 71.12089539 C18.26864526 65.64139924 18.23916773 60.16214124 18.20599365 54.68273926 C18.17531844 49.09256207 18.1616057 43.50234645 18.14648438 37.91210938 C18.11429922 26.94128472 18.06152148 15.97069941 18 5 C12.06 4.67 6.12 4.34 0 4 C0 2.68 0 1.36 0 0 Z " fill="#BBD7EB" transform="translate(110,28)"/>
<path d="M0 0 C0.83096191 -0.01268417 1.66192383 -0.02536835 2.51806641 -0.03843689 C3.41187012 -0.03550125 4.30567383 -0.03256561 5.2265625 -0.02954102 C6.14743652 -0.03478287 7.06831055 -0.04002472 8.01708984 -0.04542542 C9.96385693 -0.05184825 11.91066281 -0.05050524 13.85742188 -0.04199219 C16.84054417 -0.03347871 19.82175431 -0.0622451 22.8046875 -0.09399414 C24.69531192 -0.09560611 26.58593975 -0.09502871 28.4765625 -0.09204102 C29.81726807 -0.10889198 29.81726807 -0.10889198 31.18505859 -0.12608337 C37.23283735 -0.05780838 37.23283735 -0.05780838 39.91040039 1.94091797 C41.2287708 5.39125237 41.29975746 8.66756438 41.28515625 12.31030273 C41.2903981 13.07201782 41.29563995 13.83373291 41.30104065 14.61853027 C41.30745096 16.22557356 41.30613664 17.83266383 41.29760742 19.43969727 C41.28909003 21.89611376 41.31788014 24.35020921 41.34960938 26.80639648 C41.3512214 28.37019787 41.35064384 29.93400337 41.34765625 31.49780273 C41.36450722 32.59638611 41.36450722 32.59638611 41.38169861 33.71716309 C41.3380425 36.91664238 41.02999962 39.10215109 39.3918457 41.8737793 C35.55852316 44.18298311 32.10260497 43.90080668 27.7109375 43.79467773 C26.82875549 43.78901794 25.94657349 43.78335815 25.03765869 43.77752686 C22.22507037 43.75516864 19.41376455 43.70497406 16.6015625 43.65405273 C14.69272676 43.63398698 12.78387101 43.61573634 10.875 43.59936523 C6.20002805 43.55530574 1.52601258 43.48628257 -3.1484375 43.40405273 C-3.1484375 43.07405273 -3.1484375 42.74405273 -3.1484375 42.40405273 C-2.01825195 42.37899658 -0.88806641 42.35394043 0.27636719 42.328125 C4.47342067 42.23388317 8.67031513 42.13370348 12.8671875 42.03173828 C14.68290484 41.98845288 16.49866121 41.94677329 18.31445312 41.90673828 C20.92590083 41.84888071 23.53715327 41.78523101 26.1484375 41.72045898 C26.95899597 41.70374649 27.76955444 41.687034 28.60467529 41.66981506 C32.16880973 41.57633878 35.41844185 41.35780689 38.8515625 40.40405273 C38.73361728 35.29524247 38.60939203 30.18663909 38.47924805 25.078125 C38.43583677 23.33890986 38.39416638 21.59965038 38.35424805 19.86035156 C38.29669482 17.36566785 38.2329583 14.87120863 38.16796875 12.37670898 C38.15125626 11.59441422 38.13454376 10.81211945 38.11732483 10.00611877 C38.34507519 6.40533493 38.34507519 6.40533493 36.8515625 3.40405273 C34.11455072 3.24394792 31.3998866 3.14458446 28.66015625 3.08764648 C27.43039818 3.05647484 27.43039818 3.05647484 26.17579651 3.02467346 C23.54697349 2.9590878 20.91804746 2.90025148 18.2890625 2.84155273 C16.51105689 2.79837606 14.73306185 2.75476206 12.95507812 2.71069336 C8.58734616 2.60339731 4.21951023 2.5021557 -0.1484375 2.40405273 C-0.1484375 4.38405273 -0.1484375 6.36405273 -0.1484375 8.40405273 C-0.8084375 8.07405273 -1.4684375 7.74405273 -2.1484375 7.40405273 C-2.1484375 6.08405273 -2.1484375 4.76405273 -2.1484375 3.40405273 C-3.1384375 3.89905273 -3.1384375 3.89905273 -4.1484375 4.40405273 C-5.30682793 7.87922402 -5.37644968 11.07675293 -5.46484375 14.69702148 C-5.48562485 15.40305008 -5.50640594 16.10907867 -5.52781677 16.83650208 C-5.59311241 19.08808824 -5.65210397 21.33978935 -5.7109375 23.59155273 C-5.75414175 25.11955933 -5.79775666 26.64755438 -5.84179688 28.17553711 C-5.94877324 31.91825835 -6.05009672 35.66109503 -6.1484375 39.40405273 C-6.4784375 39.40405273 -6.8084375 39.40405273 -7.1484375 39.40405273 C-7.22257271 34.33206385 -7.27703201 29.26039005 -7.31323242 24.18798828 C-7.32832266 22.46234646 -7.34879725 20.73674302 -7.37475586 19.01123047 C-7.41112959 16.53139786 -7.42816109 14.05207209 -7.44140625 11.57202148 C-7.45689011 10.80004929 -7.47237396 10.02807709 -7.48832703 9.23271179 C-7.49001513 3.86487506 -7.49001513 3.86487506 -5.88642883 1.70147705 C-3.7560981 0.11116826 -2.63909786 0.01952178 0 0 Z " fill="#5FA3D1" transform="translate(88.1484375,86.595947265625)"/>
<path d="M0 0 C0.33 0 0.66 0 1 0 C1 15.84 1 31.68 1 48 C-0.32 47.67 -1.64 47.34 -3 47 C-2.67 46.34 -2.34 45.68 -2 45 C-6.62 45 -11.24 45 -16 45 C-16 44.01 -16 43.02 -16 42 C-15.34 42 -14.68 42 -14 42 C-14.33 34.74 -14.66 27.48 -15 20 C-14.34 20 -13.68 20 -13 20 C-13 27.59 -13 35.18 -13 43 C-10.36 43 -7.72 43 -5 43 C-5.01047363 41.98574951 -5.02094727 40.97149902 -5.03173828 39.92651367 C-5.06793589 36.16385426 -5.09089956 32.40121024 -5.10986328 28.63842773 C-5.11992142 27.00982068 -5.13356958 25.38123168 -5.15087891 23.75268555 C-5.17513574 21.41190128 -5.18648483 19.07135576 -5.1953125 16.73046875 C-5.20563507 16.00224411 -5.21595764 15.27401947 -5.22659302 14.52372742 C-5.22742249 10.78724931 -5.12883296 9.19324944 -3 6 C-2.34 6 -1.68 6 -1 6 C-1.020625 5.195625 -1.04125 4.39125 -1.0625 3.5625 C-1 1 -1 1 0 0 Z M-3 7 C-3.33 18.55 -3.66 30.1 -4 42 C-3.34 42 -2.68 42 -2 42 C-2 30.45 -2 18.9 -2 7 C-2.33 7 -2.66 7 -3 7 Z " fill="#7C7C7C" transform="translate(141,159)"/>
<path d="M0 0 C3.12658623 2.08439082 3.4231517 2.8463034 5 6 C5.99 6.66 6.98 7.32 8 8 C8.34057617 10.61376953 8.34057617 10.61376953 8.29296875 13.8828125 C8.28330078 15.04941406 8.27363281 16.21601563 8.26367188 17.41796875 C8.23853516 18.64128906 8.21339844 19.86460937 8.1875 21.125 C8.17396484 22.35605469 8.16042969 23.58710938 8.14648438 24.85546875 C8.11103543 27.90407843 8.06162079 30.951825 8 34 C8.66 34.33 9.32 34.66 10 35 C6.04 35 2.08 35 -2 35 C-1.01 34.505 -1.01 34.505 0 34 C0 22.78 0 11.56 0 0 Z " fill="#343434" transform="translate(74,168)"/>
<path d="M0 0 C0 10.89 0 21.78 0 33 C0.66 33.33 1.32 33.66 2 34 C-1.96 34 -5.92 34 -10 34 C-9.01 33.505 -9.01 33.505 -8 33 C-8.02094727 32.30438965 -8.04189453 31.6087793 -8.06347656 30.89208984 C-8.1469698 27.71987542 -8.19876529 24.54789269 -8.25 21.375 C-8.28351563 20.28058594 -8.31703125 19.18617188 -8.3515625 18.05859375 C-8.4465587 10.22140708 -7.52057903 6.91175448 -2.3125 1.125 C-1 0 -1 0 0 0 Z " fill="#333333" transform="translate(136,169)"/>
<path d="M0 0 C0.33 0 0.66 0 1 0 C1 30.69 1 61.38 1 93 C3.475 92.505 3.475 92.505 6 92 C6.33 62.63 6.66 33.26 7 3 C7.33 3 7.66 3 8 3 C8.09262149 15.05654515 8.16372524 27.11300586 8.20724869 39.16983414 C8.22813628 44.76813561 8.25647564 50.36619394 8.30175781 55.96435547 C8.34517327 61.36544947 8.36912828 66.76630938 8.37950897 72.16756439 C8.38690804 74.22970007 8.40135647 76.29182274 8.42292023 78.35385895 C8.45189678 81.23911876 8.45595838 84.12340749 8.45410156 87.00878906 C8.46848267 87.86402664 8.48286377 88.71926422 8.49768066 89.60041809 C8.45705348 95.42271779 8.45705348 95.42271779 5.97161865 98.56195068 C5.3209845 99.03650696 4.67035034 99.51106323 4 100 C3.896875 99.38125 3.79375 98.7625 3.6875 98.125 C3.12474627 95.63473516 3.12474627 95.63473516 0 94 C-0.28605123 90.97973549 -0.37795795 88.16547516 -0.34057617 85.14404297 C-0.34101425 84.22691528 -0.34145233 83.3097876 -0.34190369 82.36486816 C-0.33980832 79.32376043 -0.31644202 76.2831993 -0.29296875 73.2421875 C-0.28737546 71.13754579 -0.2831041 69.03290018 -0.28010559 66.92825317 C-0.26863584 61.38134021 -0.23915031 55.83466188 -0.20599365 50.2878418 C-0.17533865 44.63072891 -0.16161004 38.97357821 -0.14648438 33.31640625 C-0.11428268 22.21083426 -0.06306061 11.10543662 0 0 Z " fill="#6D6D6D" transform="translate(157,36)"/>
<path d="M0 0 C2.0209846 1.65244463 2.92060026 2.52789679 3.36076355 5.14506531 C3.35410172 5.97335342 3.34743988 6.80164154 3.34057617 7.6550293 C3.34034958 8.59577805 3.34012299 9.53652679 3.33988953 10.50578308 C3.32440567 11.51836685 3.30892181 12.53095062 3.29296875 13.57421875 C3.28872391 14.61318802 3.28447906 15.65215729 3.28010559 16.72261047 C3.26329849 20.04450276 3.22564196 23.36579075 3.1875 26.6875 C3.17245582 28.93814229 3.15876695 31.18879407 3.14648438 33.43945312 C3.11338836 38.95984197 3.06316869 44.47987782 3 50 C1.68 49.67 0.36 49.34 -1 49 C-1.02491229 43.6289096 -1.0429596 38.25785361 -1.05493164 32.88671875 C-1.05992817 31.06347059 -1.06672764 29.24022638 -1.07543945 27.41699219 C-1.08771187 24.780589 -1.09327525 22.14423926 -1.09765625 19.5078125 C-1.10281754 18.70634796 -1.10797882 17.90488342 -1.11329651 17.07913208 C-1.11385276 11.33438731 -0.66283492 5.70504941 0 0 Z " fill="#4E4E4E" transform="translate(68,157)"/>
<path d="M0 0 C1.66944692 -0.0086311 3.33887533 -0.02230876 5.00823975 -0.04101562 C7.36346975 -0.06467892 9.71776293 -0.06759672 12.0730896 -0.0637207 C13.13843178 -0.07741447 13.13843178 -0.07741447 14.22529602 -0.09138489 C16.19857788 -0.07275391 16.19857788 -0.07275391 19.3777771 0.29956055 C20.3677771 1.78456055 20.3677771 1.78456055 21.3777771 3.29956055 C-0.7322229 3.29956055 -22.8422229 3.29956055 -45.6222229 3.29956055 C-45.6222229 2.96956055 -45.6222229 2.63956055 -45.6222229 2.29956055 C-30.41591683 0.89181191 -15.26854774 0.07551632 0 0 Z " fill="#A2A2A2" transform="translate(104.62222290039063,22.700439453125)"/>
<path d="M0 0 C0.99 0.33 1.98 0.66 3 1 C4 3.33333333 5 5.66666667 6 8 C6.99 8.33 7.98 8.66 9 9 C11.28185982 12.27843499 11.30328498 15.38273581 11.4140625 19.296875 C11.45273438 20.50214844 11.49140625 21.70742187 11.53125 22.94921875 C11.5621875 24.20347656 11.593125 25.45773438 11.625 26.75 C11.66367188 28.01972656 11.70234375 29.28945312 11.7421875 30.59765625 C11.8364394 33.73153181 11.91930782 36.86574598 12 40 C7.38 40.33 2.76 40.66 -2 41 C-2 39.68 -2 38.36 -2 37 C-1.34 37 -0.68 37 0 37 C0 24.79 0 12.58 0 0 Z M1 4 C1 15.22 1 26.44 1 38 C0.01 38.495 0.01 38.495 -1 39 C2.96 39 6.92 39 11 39 C10.34 38.67 9.68 38.34 9 38 C9.02094727 37.22809326 9.04189453 36.45618652 9.06347656 35.66088867 C9.14652672 32.16989115 9.19862594 28.6791012 9.25 25.1875 C9.28351563 23.97255859 9.31703125 22.75761719 9.3515625 21.50585938 C9.37089844 19.76079102 9.37089844 19.76079102 9.390625 17.98046875 C9.41157227 16.90692139 9.43251953 15.83337402 9.45410156 14.72729492 C9.27412196 11.88404322 9.27412196 11.88404322 7.08105469 10.29418945 C6.39430664 9.86710693 5.70755859 9.44002441 5 9 C3.96642853 7.35394174 2.95939668 5.69036558 2 4 C1.67 4 1.34 4 1 4 Z " fill="#757575" transform="translate(73,164)"/>
<path d="M0 0 C5.61 0 11.22 0 17 0 C20.375 6.75 20.375 6.75 20.34057617 11.63818359 C20.34034958 12.71885101 20.34012299 13.79951843 20.33988953 14.91293335 C20.32440567 16.06314972 20.30892181 17.21336609 20.29296875 18.3984375 C20.28872391 19.58853424 20.28447906 20.77863098 20.28010559 22.00479126 C20.26335169 25.79509375 20.22570416 29.58485898 20.1875 33.375 C20.17244897 35.94921106 20.1587613 38.52343047 20.14648438 41.09765625 C20.11345883 47.39861992 20.06329145 53.69927157 20 60 C19.67 60 19.34 60 19 60 C18.67 41.85 18.34 23.7 18 5 C12.06 4.67 6.12 4.34 0 4 C0 2.68 0 1.36 0 0 Z " fill="#D1D0D1" transform="translate(110,28)"/>
<path d="M0 0 C1.084021 0.00523682 2.16804199 0.01047363 3.28491211 0.01586914 C5.03964844 0.02070313 5.03964844 0.02070313 6.82983398 0.02563477 C8.67738281 0.03820312 8.67738281 0.03820312 10.56225586 0.05102539 C12.41560547 0.05779297 12.41560547 0.05779297 14.30639648 0.06469727 C17.37089703 0.07652931 20.43530307 0.09301366 23.49975586 0.11352539 C23.49975586 1.43352539 23.49975586 2.75352539 23.49975586 4.11352539 C14.25975586 4.44352539 5.01975586 4.77352539 -4.50024414 5.11352539 C-3.25885546 0.14797069 -3.25885546 0.14797069 0 0 Z " fill="#D4D4D4" transform="translate(86.500244140625,27.886474609375)"/>
<path d="M0 0 C0.33 0 0.66 0 1 0 C1 15.84 1 31.68 1 48 C-0.32 47.67 -1.64 47.34 -3 47 C-2.34 47 -1.68 47 -1 47 C-1 33.8 -1 20.6 -1 7 C-1.66 6.67 -2.32 6.34 -3 6 C-2.34 6 -1.68 6 -1 6 C-1.0309375 4.7934375 -1.0309375 4.7934375 -1.0625 3.5625 C-1 1 -1 1 0 0 Z " fill="#AFAFAF" transform="translate(141,159)"/>
<path d="M0 0 C0.66 0 1.32 0 2 0 C0.63568604 4.29673981 -0.97887945 8.3783477 -2.8203125 12.4921875 C-3.35527344 13.69101563 -3.89023438 14.88984375 -4.44140625 16.125 C-5.00254283 17.37502754 -5.56374151 18.6250272 -6.125 19.875 C-6.69426888 21.14832198 -7.26328176 22.42175844 -7.83203125 23.6953125 C-9.21884269 26.79800928 -10.60824514 29.89951828 -12 33 C-13.78871285 27.63386145 -10.93414612 22.19590536 -9.3125 16.9375 C-8.95994141 15.72771484 -8.60738281 14.51792969 -8.24414062 13.27148438 C-7.71530273 11.54188477 -7.71530273 11.54188477 -7.17578125 9.77734375 C-6.69492065 8.18780884 -6.69492065 8.18780884 -6.2043457 6.56616211 C-4.8190892 3.61452394 -3.94497782 3.16776525 -1 2 C-0.67 1.34 -0.34 0.68 0 0 Z " fill="#A2A2A2" transform="translate(124,161)"/>
<path d="M0 0 C1.32 0.33 2.64 0.66 4 1 C4 8.45266655 -0.23252955 12.60265874 -5 18 C-5.33 17.34 -5.66 16.68 -6 16 C-6.99 15.67 -7.98 15.34 -9 15 C-7.38325319 11.57053707 -5.42402323 8.43736948 -3.375 5.25 C-2.74335938 4.26515625 -2.11171875 3.2803125 -1.4609375 2.265625 C-0.97882813 1.51796875 -0.49671875 0.7703125 0 0 Z " fill="#565656" transform="translate(157,131)"/>
<path d="M0 0 C2.89740622 -0.13539281 5.78845621 -0.23426829 8.6875 -0.3125 C9.50412109 -0.35439453 10.32074219 -0.39628906 11.16210938 -0.43945312 C15.61938664 -0.52968141 17.40444662 -0.46661915 21.03125 2.375 C22.80356126 4.73808168 23.67827616 6.10448544 24 9 C21.25 9.375 21.25 9.375 18 9 C16.61876037 7.03277992 15.28511874 5.03131672 14 3 C11.51749828 1.85231087 11.51749828 1.85231087 9 2 C8.01 2.66 7.02 3.32 6 4 C5.67 3.34 5.34 2.68 5 2 C2.47266765 1.34444881 2.47266765 1.34444881 0 1 C0 0.67 0 0.34 0 0 Z " fill="#595959" transform="translate(140,26)"/>
<path d="M0 0 C-3.08888522 2.05925681 -3.70935927 2.2390374 -7.1875 2.125 C-9.0746875 2.063125 -9.0746875 2.063125 -11 2 C-11.0825 2.515625 -11.165 3.03125 -11.25 3.5625 C-12.32140225 7.04455732 -14.13523605 9.87200885 -16 13 C-17 9 -18 5 -19 1 C-12.63849395 0.34513908 -6.39628979 -0.12068471 0 0 Z " fill="#898989" transform="translate(158,130)"/>
<path d="M0 0 C0 0.33 0 0.66 0 1 C-0.61488281 1.00257812 -1.22976562 1.00515625 -1.86328125 1.0078125 C-4.37144958 1.12782055 -6.57991767 1.31774275 -9 2 C-11.16247221 4.90251302 -11.16247221 4.90251302 -12 8 C-14.875 8.125 -14.875 8.125 -18 8 C-18.66 7.34 -19.32 6.68 -20 6 C-14.47788628 -2.05224582 -9.12873377 -1.63356288 0 0 Z " fill="#858585" transform="translate(65,27)"/>
<path d="M0 0 C2.16113281 -0.08300781 2.16113281 -0.08300781 5.70019531 0.12792969 C6.36019531 1.11792969 7.02019531 2.10792969 7.70019531 3.12792969 C-2.19980469 3.12792969 -12.09980469 3.12792969 -22.29980469 3.12792969 C-19.27718111 0.10530611 -15.74055303 0.65905442 -11.67480469 0.50292969 C-10.89234375 0.46425781 -10.10988281 0.42558594 -9.30371094 0.38574219 C-6.20251193 0.24173958 -3.09978379 0.17242959 0 0 Z " fill="#C7C7C7" transform="translate(118.2998046875,22.8720703125)"/>
<path d="M0 0 C5.94 0 11.88 0 18 0 C18 0.99 18 1.98 18 3 C12.06 3 6.12 3 0 3 C0 2.01 0 1.02 0 0 Z " fill="#E5E5E5" transform="translate(92,28)"/>
<path d="M0 0 C1.8125 0 1.8125 0 4 1 C6.00227186 3.70815753 8 6.5467335 8 10 C6.35 10.33 4.7 10.66 3 11 C2.13619741 9.71475739 1.28419631 8.42157581 0.4375 7.125 C-0.03816406 6.40570313 -0.51382813 5.68640625 -1.00390625 4.9453125 C-1.33261719 4.30335938 -1.66132812 3.66140625 -2 3 C-1 1 -1 1 0 0 Z " fill="#9D9D9D" transform="translate(73,156)"/>
<path d="M0 0 C1.3921875 0.3403125 1.3921875 0.3403125 2.8125 0.6875 C3.4725 2.6675 4.1325 4.6475 4.8125 6.6875 C-1.5875 7.17980769 -1.5875 7.17980769 -4.625 4.6875 C-5.140625 4.0275 -5.65625 3.3675 -6.1875 2.6875 C-4.14987265 -0.14253799 -3.59070275 -0.35202968 0 0 Z " fill="#696969" transform="translate(152.1875,27.3125)"/>
<path d="M0 0 C3.79598549 1.49128001 5.71720399 3.65733441 8 7 C8 7.99 8 8.98 8 10 C8.62648438 9.97679687 9.25296875 9.95359375 9.8984375 9.9296875 C10.71570313 9.91164062 11.53296875 9.89359375 12.375 9.875 C13.18710938 9.85179687 13.99921875 9.82859375 14.8359375 9.8046875 C17 10 17 10 19 12 C9.06563859 12.78291815 9.06563859 12.78291815 4.9375 9.75 C2.6415111 6.49117704 1.25552024 3.76656072 0 0 Z " fill="#ACACAC" transform="translate(91,187)"/>
<path d="M0 0 C2.05078125 0.03255208 4.1015625 0.06510417 6.15234375 0.09765625 C7.14234375 2.07765625 8.13234375 4.05765625 9.15234375 6.09765625 C6.1016016 6.38546211 3.19050633 6.55553536 0.15234375 6.09765625 C-1.91015625 3.59765625 -1.91015625 3.59765625 -2.84765625 1.09765625 C-1.84765625 0.09765625 -1.84765625 0.09765625 0 0 Z " fill="#808080" transform="translate(138.84765625,26.90234375)"/>
<path d="M0 0 C1.98 0 3.96 0 6 0 C4.7580393 3.43927579 3.44259716 6.25207819 1 9 C0.34 9 -0.32 9 -1 9 C-0.67 6.03 -0.34 3.06 0 0 Z " fill="#6B6B6B" transform="translate(117,184)"/>
<path d="M0 0 C2.97 0 5.94 0 9 0 C9.66 1.98 10.32 3.96 11 6 C10.01 5.34 9.02 4.68 8 4 C5.67612053 3.60612212 3.34206251 3.26513915 1 3 C0.67 2.01 0.34 1.02 0 0 Z " fill="#B6B6B6" transform="translate(118,28)"/>
<path d="M0 0 C1.32 1.32 2.64 2.64 4 4 C2.875 6 2.875 6 1 8 C-2.1875 8.25 -2.1875 8.25 -5 8 C-4.01 7.67 -3.02 7.34 -2 7 C-1.855625 6.21625 -1.71125 5.4325 -1.5625 4.625 C-1 2 -1 2 0 0 Z " fill="#7A7A7A" transform="translate(113,190)"/>
<path d="M0 0 C1.0326802 2.78823655 1.04509293 3.8677274 0.0625 6.75 C-0.288125 7.4925 -0.63875 8.235 -1 9 C-0.34 9.33 0.32 9.66 1 10 C-0.65 10.33 -2.3 10.66 -4 11 C-4.33 10.34 -4.66 9.68 -5 9 C-2.6 2.6 -2.6 2.6 0 0 Z " fill="#797979" transform="translate(124,174)"/>
<path d="M0 0 C7.79102257 4.89542862 7.79102257 4.89542862 9 10 C9 10.99 9 11.98 9 13 C7.67876058 11.59148053 6.36830231 10.17284259 5.0625 8.75 C4.33160156 7.96109375 3.60070312 7.1721875 2.84765625 6.359375 C1.08579457 4.10955586 0.40223397 2.78371446 0 0 Z " fill="#858585" transform="translate(85,181)"/>
<path d="M0 0 C0.66 0.33 1.32 0.66 2 1 C1.47599609 1.90492188 1.47599609 1.90492188 0.94140625 2.828125 C0.48636719 3.62734375 0.03132813 4.4265625 -0.4375 5.25 C-0.88996094 6.03890625 -1.34242187 6.8278125 -1.80859375 7.640625 C-2.89311602 9.78833468 -3.53148716 11.65205061 -4 14 C-4.66 13.67 -5.32 13.34 -6 13 C-5.54356532 8.09332721 -4.2542311 5.66100999 -1 2 C-0.67 1.34 -0.34 0.68 0 0 Z " fill="#868686" transform="translate(120,178)"/>
<path d="M0 0 C2.97 0 5.94 0 9 0 C9 0.99 9 1.98 9 3 C6.03 3 3.06 3 0 3 C0 2.01 0 1.02 0 0 Z " fill="#FDFDFD" transform="translate(92,28)"/>
<path d="M0 0 C2.64 0 5.28 0 8 0 C8 0.99 8 1.98 8 3 C5.03 3 2.06 3 -1 3 C-0.67 2.01 -0.34 1.02 0 0 Z " fill="#E5E5E5" transform="translate(84,28)"/>
<path d="M0 0 C3.78717347 1.48781815 5.77407001 3.61988409 8 7 C7.67 7.99 7.34 8.98 7 10 C5.0625 9.25 5.0625 9.25 3 8 C2.375 6.125 2.375 6.125 2 4 C1.36345658 2.6520257 0.70394612 1.31403276 0 0 Z " fill="#A6A6A6" transform="translate(91,187)"/>
<path d="M0 0 C1.32 1.32 2.64 2.64 4 4 C3.34 4 2.68 4 2 4 C1.67 8.29 1.34 12.58 1 17 C0.67 17 0.34 17 0 17 C-0.19436491 14.54203147 -0.3807742 12.08390706 -0.5625 9.625 C-0.61857422 8.92632812 -0.67464844 8.22765625 -0.73242188 7.5078125 C-1.11328125 2.2265625 -1.11328125 2.2265625 0 0 Z " fill="#757575" transform="translate(59,145)"/>
<path d="M0 0 C2.24765368 2.19728609 4.15463264 4.45163555 6 7 C5.34 8.32 4.68 9.64 4 11 C3.34 10.67 2.68 10.34 2 10 C1.3671875 7.71484375 1.3671875 7.71484375 0.875 4.9375 C0.70742187 4.01839844 0.53984375 3.09929687 0.3671875 2.15234375 C0.24601562 1.44207031 0.12484375 0.73179687 0 0 Z " fill="#888888" transform="translate(69,156)"/>
<path d="M0 0 C0.33 0.99 0.66 1.98 1 3 C-0.32 4.32 -1.64 5.64 -3 7 C-3.33 5.35 -3.66 3.7 -4 2 C-2.68 1.34 -1.36 0.68 0 0 Z " fill="#6A6A6A" transform="translate(164,129)"/>
</svg>
