<svg xmlns="http://www.w3.org/2000/svg" xmlns:xlink="http://www.w3.org/1999/xlink" width="1024" zoomAndPan="magnify" viewBox="0 0 768 767.999994" height="1024" preserveAspectRatio="xMidYMid meet" version="1.0"><defs><clipPath id="c7f4ee4dbb"><path d="M 75 491 L 481 491 L 481 653.363281 L 75 653.363281 Z M 75 491 " clip-rule="nonzero"/></clipPath><clipPath id="643343ce94"><path d="M 75 508 L 481 508 L 481 653.363281 L 75 653.363281 Z M 75 508 " clip-rule="nonzero"/></clipPath><clipPath id="1bb17f4b9d"><path d="M 74 443 L 693 443 L 693 690.726562 L 74 690.726562 Z M 74 443 " clip-rule="nonzero"/></clipPath><clipPath id="f49f4baa1e"><path d="M 74 468 L 693 468 L 693 690.726562 L 74 690.726562 Z M 74 468 " clip-rule="nonzero"/></clipPath></defs><rect x="-76.8" width="921.6" fill="#ffffff" y="-76.799999" height="921.599993" fill-opacity="1"/><rect x="-76.8" width="921.6" fill="#ffffff" y="-76.799999" height="921.599993" fill-opacity="1"/><path stroke-linecap="butt" transform="matrix(0.75, 0.000287462, -0.000287462, 0.75, 73.050578, 689.460994)" fill="none" stroke-linejoin="miter" d="M 0.00103782 1.999925 L 831.454257 1.998951 " stroke="#000000" stroke-width="4" stroke-opacity="1" stroke-miterlimit="4"/><path fill="#00bcf2" d="M 454.035156 499.699219 C 455.070312 499.402344 455.980469 498.683594 456.464844 497.71875 C 456.9375 496.773438 457.164062 495.34375 456.566406 494.390625 C 456.035156 492.921875 454.59375 491.878906 452.988281 492.027344 C 452.636719 492.0625 452.292969 492.144531 451.984375 492.332031 L 451.640625 492.605469 C 451.640625 492.609375 451.640625 492.609375 451.636719 492.609375 C 451.601562 492.628906 451.429688 492.730469 451.402344 492.75 C 451.234375 492.875 451.050781 493.019531 450.898438 493.175781 C 450.804688 493.273438 450.734375 493.375 450.660156 493.476562 C 450.066406 493.59375 449.59375 493.882812 449.226562 494.375 C 448.734375 495.039062 448.714844 495.675781 448.835938 496.464844 C 449.175781 498.691406 451.898438 500.308594 454.035156 499.699219 Z M 454.035156 499.699219 " fill-opacity="1" fill-rule="nonzero"/><path fill="#00bcf2" d="M 246.59375 498.820312 C 249.976562 499.179688 252.886719 494.996094 251.371094 491.957031 L 251.695312 493.34375 C 251.128906 489.882812 245.949219 488.339844 243.582031 490.933594 C 241.234375 493.5 243.136719 498.449219 246.59375 498.820312 Z M 246.59375 498.820312 " fill-opacity="1" fill-rule="nonzero"/><g clip-path="url(#c7f4ee4dbb)"><path fill="#00bcf2" d="M 477.277344 501.066406 C 468.675781 500.902344 464.078125 509.144531 454.859375 507.152344 C 451.609375 506.449219 444.445312 505.601562 441.765625 503.722656 C 436.710938 500.175781 440.832031 501.1875 441.039062 496.484375 C 441.308594 490.34375 436.996094 490.15625 432.0625 493.917969 C 427.59375 497.328125 422.835938 502.675781 416.910156 503.304688 C 409.070312 504.140625 410.3125 495.292969 403.785156 496.15625 C 400.945312 496.535156 398.613281 498.488281 396.183594 500.015625 C 390.914062 503.328125 387.1875 497.707031 381.925781 501.792969 C 379.546875 503.640625 377.605469 506.191406 374.777344 507.21875 C 371.945312 508.242188 367.863281 506.472656 368.242188 503.488281 C 368.472656 501.691406 370.207031 500.375 370.472656 498.582031 C 370.871094 495.886719 367.808594 493.933594 365.101562 493.605469 C 359.574219 492.933594 353.847656 495.160156 348.808594 497.152344 C 346.457031 498.078125 339.351562 502.855469 337.09375 501.441406 C 335.785156 500.621094 335.171875 499.058594 334.683594 497.589844 C 334.195312 496.125 333.679688 494.550781 332.457031 493.601562 C 330.042969 491.726562 326.394531 493.40625 324.503906 495.804688 C 322.609375 498.207031 321.566406 501.261719 319.332031 503.347656 C 316.859375 505.652344 313.253906 506.40625 309.890625 506.113281 C 305.914062 505.769531 302.523438 503.328125 298.789062 502.835938 C 294.496094 502.273438 290.285156 504.945312 286.125 502.640625 C 280.460938 499.503906 277.816406 494.496094 270.453125 496.636719 C 264.746094 498.296875 260.078125 503.523438 254.539062 505.804688 C 250.203125 507.585938 244.996094 508.015625 240.996094 505.574219 C 239.984375 504.953125 239.070312 504.167969 237.984375 503.6875 C 231.667969 500.902344 226.679688 511.996094 218.519531 505.867188 C 216.65625 504.46875 215.269531 502.488281 213.316406 501.214844 C 205.191406 495.910156 207.769531 509.925781 200.648438 508.429688 C 198.414062 507.957031 197.121094 504.667969 194.511719 504.242188 C 190.003906 503.511719 186.253906 507.800781 182.554688 509.707031 C 177.445312 512.339844 171.023438 512.242188 165.996094 509.457031 C 162.457031 507.496094 159.648438 504.34375 155.976562 502.640625 C 148.453125 499.148438 140.871094 507.023438 132.875 505.183594 C 128.328125 504.136719 124.238281 501.71875 119.917969 499.957031 C 115.601562 498.195312 110.667969 497.097656 106.316406 498.78125 C 103.25 499.96875 100.835938 502.398438 97.933594 503.941406 C 93.683594 506.203125 92.191406 504.515625 88.921875 502.867188 C 85.597656 501.191406 83.78125 501.230469 79.980469 502.910156 C 78.589844 503.527344 77.195312 504.140625 75.804688 504.757812 L 75.804688 514.390625 C 75.804688 572.902344 75.804688 653.359375 75.804688 653.359375 L 480.511719 653.359375 C 480.511719 653.359375 480.511719 571.546875 480.511719 513.292969 L 480.511719 501.582031 C 479.578125 501.273438 478.5 501.085938 477.277344 501.066406 Z M 477.277344 501.066406 " fill-opacity="1" fill-rule="nonzero"/></g><path fill="#00bcf2" d="M 174.554688 503.800781 C 175.308594 504.132812 175.992188 504.253906 176.773438 504.304688 C 177.652344 504.464844 178.453125 504.351562 179.503906 504.070312 C 180.441406 503.820312 181.375 503.566406 182.3125 503.316406 C 184.125 502.828125 185.1875 500.769531 184.664062 499 C 184.148438 497.242188 182.136719 496.054688 180.347656 496.648438 C 179.425781 496.953125 178.507812 497.257812 177.585938 497.5625 C 176.511719 497.917969 175.714844 498.265625 175.011719 498.980469 C 174.46875 499.398438 174.003906 499.835938 173.609375 500.445312 C 172.941406 501.488281 173.382812 503.285156 174.554688 503.800781 Z M 174.554688 503.800781 " fill-opacity="1" fill-rule="nonzero"/><path fill="#00bcf2" d="M 446.9375 496.945312 C 446.882812 496.945312 446.882812 497.027344 446.9375 497.027344 C 446.992188 497.027344 446.992188 496.945312 446.9375 496.945312 Z M 446.9375 496.945312 " fill-opacity="1" fill-rule="nonzero"/><g clip-path="url(#643343ce94)"><path fill="#00bcf2" d="M 478.71875 514.085938 C 470.226562 517.09375 461.257812 518.753906 452.578125 516.355469 C 443.808594 513.933594 438.527344 515.992188 429.535156 517.054688 C 422.011719 517.945312 420.359375 513.320312 414.554688 511.136719 C 407.984375 508.660156 402.039062 515.046875 395.910156 516.019531 C 390.058594 516.949219 383.011719 515.78125 376.980469 515.828125 C 372.195312 515.863281 367.261719 515.867188 362.835938 514.058594 C 359.683594 512.765625 356.949219 510.617188 353.839844 509.230469 C 344.683594 505.152344 337.429688 515.140625 328.820312 517.164062 C 320.453125 519.128906 312.007812 515.164062 303.640625 513.21875 C 292.316406 510.585938 280.503906 511.65625 268.933594 512.742188 C 261.539062 513.433594 254.140625 514.285156 246.734375 514.824219 C 242.636719 515.121094 237.257812 513.789062 233.355469 514.890625 C 227.917969 516.429688 225.496094 521.300781 219.183594 521.527344 C 214.199219 521.710938 209.46875 519.113281 204.457031 519.128906 C 194.335938 519.164062 184.890625 523.003906 174.589844 521.328125 C 167.441406 520.167969 160.835938 516.847656 153.832031 515 C 148.339844 513.546875 142.71875 513.019531 137.066406 513.019531 C 131.585938 513.023438 126.949219 511.125 121.675781 509.347656 C 118.523438 508.285156 114.902344 507.261719 112.019531 508.917969 C 108.898438 510.710938 107.859375 515.027344 104.65625 516.667969 C 101.835938 518.113281 98.398438 516.957031 95.601562 515.460938 C 92.808594 513.96875 89.988281 512.09375 86.816406 512.128906 C 84.34375 512.152344 82.058594 513.347656 79.6875 514.046875 C 78.945312 514.261719 77.460938 514.417969 75.804688 514.390625 C 75.804688 572.902344 75.804688 653.359375 75.804688 653.359375 L 480.511719 653.359375 C 480.511719 653.359375 480.511719 571.546875 480.511719 513.292969 C 479.964844 513.585938 479.371094 513.855469 478.71875 514.085938 Z M 478.71875 514.085938 " fill-opacity="1" fill-rule="nonzero"/></g><path fill="#b1e3fa" d="M 243.582031 490.933594 C 245.949219 488.339844 251.128906 489.882812 251.695312 493.34375 L 251.371094 491.957031 C 252.886719 494.996094 249.976562 499.179688 246.59375 498.820312 C 243.136719 498.449219 241.234375 493.5 243.582031 490.933594 Z M 454.035156 499.699219 C 455.070312 499.402344 455.980469 498.683594 456.464844 497.71875 C 456.9375 496.773438 457.164062 495.34375 456.566406 494.390625 C 456.035156 492.921875 454.59375 491.878906 452.988281 492.027344 C 452.636719 492.0625 452.292969 492.144531 451.984375 492.332031 L 451.640625 492.605469 C 451.640625 492.609375 451.640625 492.609375 451.636719 492.609375 C 451.601562 492.628906 451.429688 492.730469 451.40625 492.75 C 451.234375 492.875 451.050781 493.019531 450.898438 493.175781 C 450.804688 493.273438 450.734375 493.375 450.660156 493.476562 C 450.066406 493.59375 449.59375 493.882812 449.226562 494.375 C 448.734375 495.039062 448.714844 495.675781 448.835938 496.464844 C 449.175781 498.691406 451.898438 500.308594 454.035156 499.699219 Z M 174.554688 503.800781 C 175.308594 504.132812 175.992188 504.253906 176.773438 504.304688 C 177.652344 504.464844 178.453125 504.351562 179.503906 504.070312 C 180.441406 503.820312 181.375 503.566406 182.3125 503.316406 C 184.125 502.828125 185.183594 500.769531 184.664062 499 C 184.148438 497.242188 182.136719 496.054688 180.347656 496.648438 C 179.425781 496.953125 178.507812 497.257812 177.585938 497.5625 C 176.511719 497.917969 175.714844 498.265625 175.011719 498.980469 C 174.46875 499.398438 174.003906 499.835938 173.609375 500.445312 C 172.941406 501.488281 173.382812 503.285156 174.554688 503.800781 Z M 79.6875 514.046875 C 82.058594 513.347656 84.34375 512.152344 86.816406 512.128906 C 89.988281 512.09375 92.808594 513.96875 95.601562 515.460938 C 98.398438 516.957031 101.835938 518.113281 104.65625 516.667969 C 107.859375 515.027344 108.898438 510.710938 112.019531 508.917969 C 114.902344 507.261719 118.523438 508.285156 121.675781 509.347656 C 126.949219 511.125 131.585938 513.023438 137.066406 513.019531 C 142.71875 513.019531 148.339844 513.546875 153.832031 515 C 160.835938 516.847656 167.441406 520.167969 174.589844 521.328125 C 184.890625 523.003906 194.335938 519.164062 204.457031 519.128906 C 209.46875 519.113281 214.199219 521.710938 219.183594 521.527344 C 225.496094 521.300781 227.917969 516.429688 233.355469 514.890625 C 237.257812 513.789062 242.636719 515.121094 246.734375 514.824219 C 254.140625 514.285156 261.539062 513.433594 268.933594 512.742188 C 280.503906 511.65625 292.316406 510.585938 303.640625 513.21875 C 312.007812 515.164062 320.453125 519.128906 328.820312 517.164062 C 337.429688 515.144531 344.683594 505.152344 353.839844 509.230469 C 356.949219 510.617188 359.683594 512.765625 362.835938 514.058594 C 367.261719 515.867188 372.195312 515.863281 376.980469 515.828125 C 383.011719 515.78125 390.058594 516.949219 395.910156 516.019531 C 402.039062 515.046875 407.984375 508.660156 414.554688 511.136719 C 420.359375 513.320312 422.011719 517.945312 429.535156 517.054688 C 438.527344 515.992188 443.808594 513.933594 452.578125 516.355469 C 461.257812 518.753906 470.226562 517.09375 478.71875 514.085938 C 479.371094 513.855469 479.964844 513.585938 480.511719 513.292969 L 480.511719 501.582031 C 479.578125 501.273438 478.5 501.085938 477.277344 501.066406 C 468.675781 500.902344 464.078125 509.144531 454.859375 507.152344 C 451.609375 506.449219 444.445312 505.601562 441.765625 503.722656 C 436.710938 500.175781 440.832031 501.1875 441.039062 496.484375 C 441.308594 490.34375 436.996094 490.15625 432.0625 493.917969 C 427.59375 497.328125 422.835938 502.675781 416.910156 503.304688 C 409.070312 504.140625 410.3125 495.292969 403.785156 496.15625 C 400.945312 496.535156 398.613281 498.488281 396.183594 500.015625 C 390.914062 503.328125 387.1875 497.707031 381.921875 501.792969 C 379.546875 503.640625 377.605469 506.191406 374.777344 507.21875 C 371.945312 508.242188 367.863281 506.472656 368.242188 503.488281 C 368.472656 501.691406 370.207031 500.375 370.472656 498.582031 C 370.871094 495.886719 367.808594 493.933594 365.101562 493.605469 C 359.574219 492.933594 353.847656 495.160156 348.808594 497.152344 C 346.457031 498.078125 339.351562 502.855469 337.09375 501.441406 C 335.785156 500.621094 335.171875 499.058594 334.683594 497.589844 C 334.195312 496.125 333.679688 494.550781 332.457031 493.601562 C 330.042969 491.726562 326.394531 493.40625 324.503906 495.804688 C 322.609375 498.207031 321.566406 501.261719 319.332031 503.347656 C 316.859375 505.652344 313.253906 506.40625 309.890625 506.113281 C 305.914062 505.769531 302.523438 503.328125 298.789062 502.835938 C 294.496094 502.273438 290.285156 504.945312 286.125 502.640625 C 280.460938 499.503906 277.820312 494.496094 270.453125 496.636719 C 264.746094 498.296875 260.078125 503.523438 254.539062 505.804688 C 250.207031 507.585938 244.996094 508.015625 240.996094 505.574219 C 239.984375 504.953125 239.070312 504.167969 237.984375 503.6875 C 231.667969 500.902344 226.679688 511.996094 218.523438 505.867188 C 216.65625 504.46875 215.269531 502.488281 213.316406 501.214844 C 205.191406 495.910156 207.769531 509.925781 200.648438 508.429688 C 198.414062 507.957031 197.121094 504.667969 194.511719 504.242188 C 190.003906 503.511719 186.253906 507.800781 182.554688 509.707031 C 177.445312 512.339844 171.023438 512.242188 165.996094 509.457031 C 162.457031 507.496094 159.648438 504.34375 155.976562 502.640625 C 148.453125 499.148438 140.871094 507.023438 132.875 505.183594 C 128.328125 504.136719 124.238281 501.71875 119.921875 499.957031 C 115.601562 498.195312 110.667969 497.097656 106.316406 498.78125 C 103.25 499.96875 100.835938 502.398438 97.933594 503.941406 C 93.683594 506.203125 92.191406 504.515625 88.921875 502.867188 C 85.597656 501.191406 83.78125 501.230469 79.980469 502.910156 C 78.589844 503.527344 77.199219 504.140625 75.804688 504.757812 L 75.804688 514.390625 C 77.460938 514.417969 78.945312 514.261719 79.6875 514.046875 Z M 79.6875 514.046875 " fill-opacity="1" fill-rule="nonzero"/><path fill="#b1e3fa" d="M 446.9375 496.945312 C 446.882812 496.945312 446.882812 497.027344 446.9375 497.027344 C 446.992188 497.027344 446.992188 496.945312 446.9375 496.945312 Z M 446.9375 496.945312 " fill-opacity="1" fill-rule="nonzero"/><path fill="#00bcf2" d="M 652.320312 456.039062 C 653.898438 455.585938 655.285156 454.488281 656.027344 453.015625 C 656.75 451.570312 657.097656 449.390625 656.183594 447.933594 C 655.371094 445.691406 653.167969 444.09375 650.722656 444.324219 C 650.179688 444.375 649.65625 444.503906 649.183594 444.789062 L 648.664062 445.207031 C 648.660156 445.210938 648.660156 445.210938 648.65625 445.214844 C 648.601562 445.242188 648.339844 445.398438 648.300781 445.425781 C 648.039062 445.617188 647.757812 445.839844 647.527344 446.074219 C 647.382812 446.226562 647.277344 446.382812 647.164062 446.539062 C 646.257812 446.714844 645.539062 447.15625 644.976562 447.910156 C 644.222656 448.921875 644.195312 449.894531 644.378906 451.097656 C 644.898438 454.503906 649.054688 456.972656 652.320312 456.039062 Z M 652.320312 456.039062 " fill-opacity="1" fill-rule="nonzero"/><path fill="#00bcf2" d="M 335.613281 454.695312 C 340.777344 455.25 345.222656 448.859375 342.90625 444.214844 L 343.402344 446.335938 C 342.539062 441.046875 334.628906 438.695312 331.011719 442.652344 C 327.433594 446.574219 330.335938 454.128906 335.613281 454.695312 Z M 335.613281 454.695312 " fill-opacity="1" fill-rule="nonzero"/><g clip-path="url(#1bb17f4b9d)"><path fill="#00bcf2" d="M 687.800781 458.125 C 674.667969 457.878906 667.648438 470.464844 653.574219 467.421875 C 648.617188 466.351562 637.671875 465.058594 633.585938 462.1875 C 625.863281 456.765625 632.15625 458.3125 632.472656 451.128906 C 632.886719 441.753906 626.304688 441.464844 618.773438 447.210938 C 611.945312 452.417969 604.6875 460.582031 595.640625 461.546875 C 583.664062 462.824219 585.5625 449.308594 575.601562 450.632812 C 571.261719 451.207031 567.703125 454.191406 563.992188 456.523438 C 555.945312 461.582031 550.257812 452.996094 542.222656 459.242188 C 538.59375 462.058594 535.628906 465.953125 531.308594 467.523438 C 526.992188 469.089844 520.757812 466.386719 521.339844 461.828125 C 521.6875 459.085938 524.335938 457.074219 524.742188 454.335938 C 525.351562 450.214844 520.675781 447.234375 516.539062 446.730469 C 508.097656 445.707031 499.359375 449.109375 491.664062 452.148438 C 488.074219 453.566406 477.226562 460.863281 473.78125 458.703125 C 471.78125 457.445312 470.847656 455.0625 470.101562 452.820312 C 469.351562 450.582031 468.566406 448.179688 466.703125 446.730469 C 463.015625 443.863281 457.449219 446.425781 454.558594 450.09375 C 451.664062 453.761719 450.074219 458.429688 446.660156 461.613281 C 442.890625 465.132812 437.386719 466.28125 432.246094 465.839844 C 426.175781 465.3125 421 461.582031 415.296875 460.832031 C 408.75 459.972656 402.316406 464.054688 395.964844 460.535156 C 387.320312 455.742188 383.285156 448.09375 372.039062 451.367188 C 363.328125 453.902344 356.199219 461.882812 347.742188 465.363281 C 341.125 468.085938 333.171875 468.742188 327.066406 465.011719 C 325.523438 464.066406 324.125 462.863281 322.46875 462.132812 C 312.824219 457.878906 305.210938 474.820312 292.753906 465.464844 C 289.910156 463.324219 287.789062 460.300781 284.808594 458.355469 C 272.402344 450.253906 276.339844 471.660156 265.464844 469.371094 C 262.058594 468.65625 260.078125 463.628906 256.097656 462.980469 C 249.214844 461.863281 243.488281 468.414062 237.84375 471.324219 C 230.042969 475.347656 220.238281 475.199219 212.5625 470.941406 C 207.160156 467.945312 202.871094 463.132812 197.265625 460.53125 C 185.777344 455.199219 174.203125 467.230469 161.996094 464.417969 C 155.054688 462.816406 148.8125 459.128906 142.21875 456.4375 C 135.625 453.746094 128.089844 452.066406 121.449219 454.636719 C 116.765625 456.449219 113.085938 460.164062 108.652344 462.523438 C 102.164062 465.972656 99.886719 463.398438 94.894531 460.878906 C 89.820312 458.320312 87.042969 458.378906 81.242188 460.945312 C 79.117188 461.886719 76.992188 462.828125 74.867188 463.765625 L 74.867188 478.480469 C 74.867188 567.84375 74.867188 690.722656 74.867188 690.722656 L 692.738281 690.722656 C 692.738281 690.722656 692.738281 565.773438 692.738281 476.800781 L 692.738281 458.917969 C 691.3125 458.445312 689.667969 458.160156 687.800781 458.125 Z M 687.800781 458.125 " fill-opacity="1" fill-rule="nonzero"/></g><path fill="#00bcf2" d="M 225.628906 462.304688 C 226.78125 462.8125 227.824219 462.996094 229.015625 463.074219 C 230.359375 463.316406 231.582031 463.148438 233.1875 462.714844 C 234.617188 462.332031 236.042969 461.949219 237.472656 461.5625 C 240.242188 460.820312 241.859375 457.675781 241.066406 454.972656 C 240.277344 452.289062 237.203125 450.476562 234.472656 451.378906 C 233.066406 451.847656 231.664062 452.3125 230.257812 452.777344 C 228.617188 453.320312 227.398438 453.851562 226.328125 454.941406 C 225.496094 455.582031 224.785156 456.246094 224.1875 457.179688 C 223.164062 458.773438 223.84375 461.515625 225.628906 462.304688 Z M 225.628906 462.304688 " fill-opacity="1" fill-rule="nonzero"/><path fill="#00bcf2" d="M 641.476562 451.832031 C 641.394531 451.832031 641.398438 451.960938 641.480469 451.960938 C 641.5625 451.960938 641.5625 451.832031 641.476562 451.832031 Z M 641.476562 451.832031 " fill-opacity="1" fill-rule="nonzero"/><g clip-path="url(#f49f4baa1e)"><path fill="#00bcf2" d="M 690.003906 478.015625 C 677.035156 482.605469 663.34375 485.140625 650.09375 481.480469 C 636.703125 477.78125 628.640625 480.925781 614.914062 482.550781 C 603.429688 483.910156 600.90625 476.84375 592.042969 473.507812 C 582.011719 469.726562 572.933594 479.484375 563.574219 480.96875 C 554.644531 482.382812 543.882812 480.605469 534.675781 480.671875 C 527.371094 480.726562 519.839844 480.738281 513.078125 477.96875 C 508.265625 476 504.097656 472.714844 499.34375 470.597656 C 485.367188 464.371094 474.296875 479.625 461.148438 482.714844 C 448.378906 485.710938 435.480469 479.664062 422.707031 476.691406 C 405.421875 472.667969 387.386719 474.304688 369.71875 475.960938 C 358.429688 477.019531 347.136719 478.316406 335.828125 479.140625 C 329.570312 479.59375 321.359375 477.558594 315.398438 479.246094 C 307.097656 481.59375 303.40625 489.03125 293.765625 489.378906 C 286.15625 489.65625 278.933594 485.691406 271.28125 485.71875 C 255.832031 485.769531 241.410156 491.632812 225.683594 489.074219 C 214.769531 487.300781 204.683594 482.230469 193.992188 479.40625 C 185.605469 477.191406 177.027344 476.382812 168.394531 476.386719 C 160.027344 476.390625 152.953125 473.492188 144.898438 470.777344 C 140.085938 469.15625 134.558594 467.589844 130.15625 470.121094 C 125.390625 472.855469 123.804688 479.449219 118.914062 481.957031 C 114.605469 484.164062 109.363281 482.394531 105.09375 480.113281 C 100.824219 477.832031 96.519531 474.972656 91.679688 475.023438 C 87.90625 475.0625 84.414062 476.886719 80.792969 477.953125 C 79.660156 478.285156 77.394531 478.519531 74.867188 478.480469 C 74.867188 567.84375 74.867188 690.722656 74.867188 690.722656 L 692.738281 690.722656 C 692.738281 690.722656 692.738281 565.773438 692.738281 476.800781 C 691.902344 477.25 691 477.660156 690.003906 478.015625 Z M 690.003906 478.015625 " fill-opacity="1" fill-rule="nonzero"/></g><path fill="#b1e3fa" d="M 331.011719 442.652344 C 334.628906 438.695312 342.539062 441.046875 343.402344 446.335938 L 342.902344 444.214844 C 345.222656 448.859375 340.777344 455.25 335.613281 454.695312 C 330.335938 454.128906 327.433594 446.574219 331.011719 442.652344 Z M 652.320312 456.039062 C 653.898438 455.585938 655.285156 454.488281 656.027344 453.015625 C 656.75 451.570312 657.097656 449.390625 656.183594 447.933594 C 655.371094 445.691406 653.167969 444.09375 650.722656 444.324219 C 650.179688 444.375 649.65625 444.503906 649.183594 444.789062 L 648.664062 445.207031 C 648.660156 445.210938 648.660156 445.210938 648.65625 445.214844 C 648.601562 445.242188 648.339844 445.398438 648.300781 445.425781 C 648.039062 445.617188 647.757812 445.839844 647.527344 446.074219 C 647.382812 446.226562 647.277344 446.382812 647.164062 446.539062 C 646.257812 446.714844 645.539062 447.15625 644.976562 447.910156 C 644.222656 448.921875 644.195312 449.894531 644.378906 451.097656 C 644.898438 454.503906 649.054688 456.972656 652.320312 456.039062 Z M 225.628906 462.304688 C 226.78125 462.8125 227.824219 462.996094 229.015625 463.074219 C 230.359375 463.316406 231.582031 463.148438 233.1875 462.714844 C 234.617188 462.332031 236.042969 461.949219 237.472656 461.5625 C 240.242188 460.820312 241.859375 457.675781 241.066406 454.972656 C 240.277344 452.289062 237.203125 450.476562 234.472656 451.378906 C 233.066406 451.847656 231.664062 452.3125 230.257812 452.777344 C 228.617188 453.320312 227.398438 453.851562 226.328125 454.941406 C 225.5 455.582031 224.785156 456.246094 224.1875 457.179688 C 223.164062 458.773438 223.84375 461.515625 225.628906 462.304688 Z M 80.792969 477.953125 C 84.414062 476.886719 87.90625 475.0625 91.679688 475.023438 C 96.519531 474.972656 100.824219 477.832031 105.09375 480.113281 C 109.363281 482.394531 114.605469 484.164062 118.914062 481.957031 C 123.804688 479.449219 125.390625 472.855469 130.15625 470.121094 C 134.558594 467.589844 140.085938 469.15625 144.898438 470.777344 C 152.953125 473.492188 160.027344 476.390625 168.394531 476.386719 C 177.027344 476.382812 185.605469 477.191406 193.992188 479.40625 C 204.683594 482.230469 214.769531 487.300781 225.683594 489.074219 C 241.410156 491.632812 255.832031 485.769531 271.28125 485.71875 C 278.933594 485.691406 286.15625 489.65625 293.765625 489.378906 C 303.40625 489.03125 307.097656 481.59375 315.398438 479.246094 C 321.359375 477.558594 329.570312 479.59375 335.828125 479.140625 C 347.136719 478.316406 358.429688 477.019531 369.71875 475.960938 C 387.386719 474.304688 405.421875 472.667969 422.707031 476.691406 C 435.480469 479.664062 448.378906 485.710938 461.148438 482.714844 C 474.296875 479.625 485.367188 464.371094 499.34375 470.597656 C 504.097656 472.714844 508.265625 476 513.078125 477.96875 C 519.839844 480.738281 527.371094 480.726562 534.675781 480.671875 C 543.882812 480.605469 554.644531 482.382812 563.574219 480.96875 C 572.933594 479.484375 582.011719 469.726562 592.042969 473.507812 C 600.90625 476.84375 603.429688 483.910156 614.914062 482.550781 C 628.640625 480.925781 636.703125 477.78125 650.09375 481.480469 C 663.34375 485.140625 677.035156 482.605469 690.003906 478.015625 C 691 477.660156 691.902344 477.25 692.738281 476.800781 L 692.738281 458.917969 C 691.3125 458.445312 689.667969 458.160156 687.800781 458.125 C 674.667969 457.878906 667.648438 470.464844 653.574219 467.421875 C 648.617188 466.351562 637.671875 465.058594 633.585938 462.1875 C 625.867188 456.765625 632.15625 458.3125 632.472656 451.128906 C 632.886719 441.753906 626.304688 441.464844 618.773438 447.210938 C 611.945312 452.417969 604.6875 460.582031 595.640625 461.546875 C 583.664062 462.824219 585.5625 449.308594 575.601562 450.632812 C 571.261719 451.207031 567.703125 454.191406 563.992188 456.523438 C 555.945312 461.582031 550.257812 452.996094 542.222656 459.242188 C 538.59375 462.058594 535.628906 465.953125 531.308594 467.523438 C 526.992188 469.089844 520.757812 466.386719 521.339844 461.828125 C 521.6875 459.085938 524.335938 457.074219 524.742188 454.335938 C 525.351562 450.214844 520.675781 447.234375 516.539062 446.730469 C 508.097656 445.707031 499.359375 449.109375 491.664062 452.148438 C 488.074219 453.566406 477.226562 460.863281 473.78125 458.703125 C 471.78125 457.445312 470.847656 455.0625 470.101562 452.820312 C 469.351562 450.582031 468.566406 448.179688 466.703125 446.730469 C 463.015625 443.863281 457.449219 446.425781 454.558594 450.09375 C 451.664062 453.761719 450.074219 458.429688 446.660156 461.613281 C 442.890625 465.132812 437.386719 466.28125 432.246094 465.839844 C 426.175781 465.3125 421 461.582031 415.296875 460.832031 C 408.75 459.972656 402.316406 464.054688 395.964844 460.535156 C 387.320312 455.742188 383.285156 448.09375 372.039062 451.367188 C 363.328125 453.902344 356.199219 461.882812 347.742188 465.363281 C 341.125 468.085938 333.171875 468.742188 327.070312 465.011719 C 325.523438 464.066406 324.125 462.863281 322.46875 462.132812 C 312.824219 457.878906 305.210938 474.820312 292.753906 465.464844 C 289.910156 463.324219 287.789062 460.300781 284.808594 458.355469 C 272.402344 450.253906 276.339844 471.660156 265.46875 469.371094 C 262.058594 468.65625 260.078125 463.628906 256.097656 462.980469 C 249.214844 461.863281 243.488281 468.414062 237.84375 471.324219 C 230.042969 475.347656 220.238281 475.199219 212.5625 470.941406 C 207.160156 467.945312 202.871094 463.132812 197.265625 460.53125 C 185.777344 455.199219 174.203125 467.230469 161.996094 464.417969 C 155.054688 462.816406 148.8125 459.128906 142.21875 456.4375 C 135.625 453.746094 128.089844 452.066406 121.449219 454.636719 C 116.765625 456.449219 113.085938 460.164062 108.652344 462.523438 C 102.164062 465.972656 99.886719 463.398438 94.894531 460.878906 C 89.820312 458.320312 87.042969 458.378906 81.242188 460.945312 C 79.117188 461.886719 76.992188 462.828125 74.867188 463.765625 L 74.867188 478.480469 C 77.394531 478.519531 79.660156 478.285156 80.792969 477.953125 Z M 80.792969 477.953125 " fill-opacity="1" fill-rule="nonzero"/><path fill="#b1e3fa" d="M 641.476562 451.832031 C 641.394531 451.832031 641.398438 451.960938 641.480469 451.960938 C 641.5625 451.960938 641.5625 451.832031 641.476562 451.832031 Z M 641.476562 451.832031 " fill-opacity="1" fill-rule="nonzero"/><path stroke-linecap="butt" transform="matrix(0, -0.75, 0.75, 0, 688.011833, 706.553361)" fill="none" stroke-linejoin="miter" d="M -0.00176861 11.499848 L 473.258671 11.499848 " stroke="#000000" stroke-width="23" stroke-opacity="1" stroke-miterlimit="4"/><path stroke-linecap="butt" transform="matrix(0.015934, -0.749831, 0.749831, 0.015934, 56.189302, 706.187793)" fill="none" stroke-linejoin="miter" d="M -0.0000757721 11.500196 L 473.299548 11.502093 " stroke="#000000" stroke-width="23" stroke-opacity="1" stroke-miterlimit="4"/><path stroke-linecap="butt" transform="matrix(0.75, -0.000000000000000186, 0.000000000000000186, 0.75, 309.301276, 691.199866)" fill="none" stroke-linejoin="miter" d="M -0.000660328 11.499138 L 509.197282 11.499138 " stroke="#000000" stroke-width="23" stroke-opacity="1" stroke-miterlimit="4"/><path stroke-linecap="butt" transform="matrix(0.75, -0.000000000000000093, 0.000000000000000093, 0.75, 56.191047, 691.199866)" fill="none" stroke-linejoin="miter" d="M 0.000479507 11.499138 L 853.932813 11.499138 " stroke="#000000" stroke-width="23" stroke-opacity="1" stroke-miterlimit="4"/></svg>