<svg xmlns="http://www.w3.org/2000/svg" xmlns:xlink="http://www.w3.org/1999/xlink" width="1024" zoomAndPan="magnify" viewBox="0 0 768 767.999994" height="1024" preserveAspectRatio="xMidYMid meet" version="1.0"><defs><clipPath id="2b7510c65a"><path d="M 353.757812 344.851562 L 503 344.851562 L 503 537.601562 L 353.757812 537.601562 Z M 353.757812 344.851562 " clip-rule="nonzero"/></clipPath></defs><rect x="-76.8" width="921.6" fill="#ffffff" y="-76.799999" height="921.599993" fill-opacity="1"/><rect x="-76.8" width="921.6" fill="#ffffff" y="-76.799999" height="921.599993" fill-opacity="1"/><g clip-path="url(#2b7510c65a)"><path fill="#ff3131" d="M 501.789062 375.289062 C 502.355469 374.53125 502.65625 373.617188 502.65625 372.679688 L 502.65625 349.253906 C 502.65625 346.832031 500.695312 344.875 498.277344 344.875 L 362.515625 344.875 C 360.097656 344.875 358.136719 346.832031 358.136719 349.253906 L 358.136719 375.53125 C 358.136719 377.953125 360.097656 379.910156 362.515625 379.910156 L 454.484375 379.910156 L 354.625 507.152344 C 354.058594 507.910156 353.757812 508.824219 353.757812 509.761719 L 353.757812 533.1875 C 353.757812 535.609375 355.71875 537.566406 358.136719 537.566406 L 498.277344 537.566406 C 500.695312 537.566406 502.65625 535.609375 502.65625 533.1875 L 502.65625 506.910156 C 502.65625 504.488281 500.695312 502.53125 498.277344 502.53125 L 406.308594 502.53125 Z M 501.789062 375.289062 " fill-opacity="1" fill-rule="nonzero"/></g></svg>